<?xml version="1.0" encoding="utf-8"?>
<!-- Generator: Adobe Illustrator 25.0.0, SVG Export Plug-In . SVG Version: 6.00 Build 0)  -->
<svg version="1.1" id="Layer_1" xmlns="http://www.w3.org/2000/svg" xmlns:xlink="http://www.w3.org/1999/xlink" x="0px" y="0px"
	 viewBox="0 0 82.08 84.52" style="enable-background:new 0 0 82.08 84.52;" xml:space="preserve">
<style type="text/css">
	.st0{fill:#FFFFFF;}
</style>
<g>
	<g>
		<path class="st0" d="M78.77,82.59H3.31c-0.79,0-1.43-0.64-1.43-1.43V11.29c0-0.79,0.64-1.43,1.43-1.43h75.45
			c0.79,0,1.43,0.64,1.43,1.43v69.86C80.2,81.94,79.56,82.59,78.77,82.59z M4.75,79.72h72.58V12.72H4.75V79.72z"/>
	</g>
	<g>
		<g>
			<path class="st0" d="M11.23,20.64c-0.79,0-1.43-0.64-1.43-1.43V3.37c0-0.79,0.64-1.43,1.43-1.43s1.43,0.64,1.43,1.43v15.84
				C12.67,20,12.02,20.64,11.23,20.64z"/>
		</g>
		<g>
			<path class="st0" d="M26.14,21.11c-0.79,0-1.43-0.64-1.43-1.43V3.83c0-0.79,0.64-1.43,1.43-1.43s1.43,0.64,1.43,1.43v15.84
				C27.57,20.46,26.93,21.11,26.14,21.11z"/>
		</g>
		<g>
			<path class="st0" d="M41.04,21.57c-0.79,0-1.43-0.64-1.43-1.43V4.3c0-0.79,0.64-1.43,1.43-1.43c0.79,0,1.43,0.64,1.43,1.43v15.84
				C42.47,20.93,41.83,21.57,41.04,21.57z"/>
		</g>
		<g>
			<path class="st0" d="M55.94,22.04c-0.79,0-1.43-0.64-1.43-1.43V4.77c0-0.79,0.64-1.43,1.43-1.43s1.43,0.64,1.43,1.43V20.6
				C57.38,21.39,56.74,22.04,55.94,22.04z"/>
		</g>
		<g>
			<path class="st0" d="M70.85,22.5c-0.79,0-1.43-0.64-1.43-1.43V5.23c0-0.79,0.64-1.43,1.43-1.43s1.43,0.64,1.43,1.43v15.84
				C72.28,21.86,71.64,22.5,70.85,22.5z"/>
		</g>
	</g>
	<g>
		<path class="st0" d="M78.77,28.09H3.31c-0.79,0-1.43-0.64-1.43-1.43s0.64-1.43,1.43-1.43h75.45c0.79,0,1.43,0.64,1.43,1.43
			S79.56,28.09,78.77,28.09z"/>
	</g>
	<g>
		<path class="st0" d="M36.54,62.56c-0.37,0-0.73-0.14-1.01-0.42L25.28,51.89c-0.56-0.56-0.56-1.47,0-2.03
			c0.56-0.56,1.47-0.56,2.03,0l9.25,9.25l20.41-19.52c0.57-0.55,1.48-0.53,2.03,0.04c0.55,0.57,0.53,1.48-0.04,2.03L37.53,62.16
			C37.25,62.43,36.89,62.56,36.54,62.56z"/>
	</g>
</g>
</svg>
