<?xml version="1.0" encoding="utf-8"?>
<!-- Generator: Adobe Illustrator 25.0.0, SVG Export Plug-In . SVG Version: 6.00 Build 0)  -->
<svg version="1.1" id="Layer_1" xmlns="http://www.w3.org/2000/svg" xmlns:xlink="http://www.w3.org/1999/xlink" x="0px" y="0px"
	 viewBox="0 0 46.46 32.5" style="enable-background:new 0 0 46.46 32.5;" xml:space="preserve">
<style type="text/css">
	.st0{fill:#FFFFFF;}
</style>
<g>
	<g>
		<polygon class="st0" points="24.29,2.39 8.96,2.22 8.96,2.27 		"/>
		<path class="st0" d="M24.29,3.42C24.28,3.42,24.28,3.42,24.29,3.42L8.95,3.3c-0.57,0-1.02-0.46-1.02-1.03
			c0-0.27,0.11-0.56,0.31-0.76c0.2-0.19,0.47-0.32,0.74-0.32L24.3,1.36c0.57,0.01,1.02,0.47,1.02,1.04
			C25.31,2.97,24.85,3.42,24.29,3.42z"/>
	</g>
	<g>
		<path class="st0" d="M37.82,8.36H33.7c-0.28,0-0.51,0.23-0.51,0.51s0.23,0.51,0.51,0.51h2.89c0.38,0,0.7,0.31,0.7,0.69l0.02,2.91
			c0,0.28,0.23,0.51,0.51,0.51c0.28,0,0.51-0.23,0.51-0.51V8.87C38.33,8.59,38.1,8.36,37.82,8.36z"/>
		<path class="st0" d="M37.82,14.54c-0.85,0-1.54-0.69-1.54-1.54l-0.01-2.57H33.7c-0.85,0-1.54-0.69-1.54-1.54s0.69-1.54,1.54-1.54
			h4.12c0.85,0,1.54,0.69,1.54,1.54v4.12C39.36,13.84,38.67,14.54,37.82,14.54z M38.33,12.98L38.33,12.98
			C38.33,12.98,38.33,12.98,38.33,12.98z"/>
	</g>
	<g>
		<path class="st0" d="M13.01,23.76L10,23.73c-0.33,0-0.59-0.27-0.59-0.6v-2.97c0-0.28-0.23-0.51-0.51-0.51s-0.51,0.23-0.51,0.51
			v4.12c0,0.28,0.23,0.51,0.51,0.51h4.12c0.28,0,0.51-0.23,0.51-0.51S13.3,23.76,13.01,23.76z"/>
		<path class="st0" d="M13.01,25.82H8.89c-0.85,0-1.54-0.69-1.54-1.54v-4.12c0-0.85,0.69-1.54,1.54-1.54s1.54,0.69,1.54,1.54v2.54
			l2.58,0.03c0.85,0,1.54,0.7,1.54,1.54C14.56,25.13,13.86,25.82,13.01,25.82z M13.01,24.79L13.01,24.79L13.01,24.79z"/>
	</g>
	<g>
		<path class="st0" d="M40.64,2.52L24.29,2.39l7.5,0.08l-7.5-0.08L8.96,2.27V2.22H7.93v0.05H5.81c-1.7,0-3.07,1.38-3.07,3.08v21.6
			c0,1.7,1.38,3.08,3.07,3.08l34.83,0.25c1.44,0,2.64-0.99,2.98-2.33V17.92v10.03c0.06-0.24,0.1-0.49,0.1-0.75v-1.38v-1.03V5.6
			C43.72,3.9,42.34,2.52,40.64,2.52z M42.69,27.2c0,1.13-0.92,2.05-2.05,2.05L5.81,28.99c-1.13,0-2.05-0.92-2.05-2.05V5.35
			c0-1.13,0.92-2.05,2.05-2.05l34.83,0.25c1.13,0,2.05,0.92,2.05,2.05V27.2z"/>
		<path class="st0" d="M40.65,31.3L5.8,31.05c-2.26,0-4.1-1.84-4.1-4.1V5.35c0-2.26,1.84-4.1,4.1-4.1h1.82
			c0.09-0.03,0.19-0.05,0.3-0.05h1.03c0.11,0,0.22,0.02,0.32,0.05l31.37,0.25c2.26,0,4.1,1.84,4.1,4.1v21.6c0,0.33-0.04,0.66-0.13,1
			c0,0,0,0,0,0C44.16,30.03,42.53,31.3,40.65,31.3z M5.8,4.33c-0.55,0-1.01,0.46-1.01,1.02v21.6c0,0.56,0.46,1.02,1.02,1.02
			l34.84,0.25c0.55,0,1.01-0.46,1.01-1.02V5.6c0-0.56-0.46-1.02-1.02-1.02L5.8,4.33z"/>
	</g>
</g>
</svg>
