<?xml version="1.0" encoding="utf-8"?>
<!-- Generator: Adobe Illustrator 25.0.0, SVG Export Plug-In . SVG Version: 6.00 Build 0)  -->
<svg version="1.1" id="Layer_1" xmlns="http://www.w3.org/2000/svg" xmlns:xlink="http://www.w3.org/1999/xlink" x="0px" y="0px"
	 viewBox="0 0 619.67 312" style="enable-background:new 0 0 619.67 312;" xml:space="preserve">
<style type="text/css">
	.st0{fill:#FFFFFF;}
</style>
<g>
	<g>
		<path class="st0" d="M127.22,24.66h-25.84L106.19,0h77.98l-4.8,24.66h-25.76L132.5,133.28h-26.39L127.22,24.66z"/>
		<path class="st0" d="M202.6,85.78l-9.22,47.5h-26.47L192.84,0h58.45c5.3,0,9.53,1.76,12.68,5.28c3.2,3.57,4.31,7.88,3.31,12.92
			l-6.7,34.34c-1.68,8.72-6.41,15.68-14.18,20.87c5.72,5.2,7.74,12.21,6.06,21.03l-7.56,38.83h-26.47L226,94.45
			c0.47-2.42-0.08-4.49-1.65-6.22c-1.58-1.63-3.62-2.44-6.14-2.44H202.6z M223,61.13c2.52,0,4.88-0.84,7.09-2.52
			c2.21-1.63,3.54-3.65,4.02-6.07l5.44-27.88H214.5l-7.09,36.47H223z"/>
		<path class="st0" d="M293.74,106.26l-10.63,27.02h-26.78L308.08,0h35.21l-0.16,133.28h-26.86l0.08-27.02H293.74z M303.35,81.61
			h12.92l4.57-56.79L303.35,81.61z"/>
		<path class="st0" d="M354.08,133.28L379.99,0h26.47l-25.92,133.28H354.08z"/>
		<path class="st0" d="M444.82,47.42l-16.7,85.86h-26.47L427.57,0h36.71l4.88,86.25L485.94,0h26.47l-25.92,133.28h-36.63
			L444.82,47.42z"/>
	</g>
	<g>
		<path class="st0" d="M83.07,182.04H53.11l-4.9,25.16c-1.32,6.85,3.02,10.27,13.01,10.27c13.07,0,23.28,3.49,30.63,10.46
			c7.85,7.41,10.62,17.21,8.29,29.4l-6.41,32.89c-1.19,6.03-4.52,11.18-9.99,15.45c-5.4,4.21-11.28,6.31-17.62,6.31H19.56
			c-6.35,0-11.4-2.1-15.17-6.31c-3.83-4.27-5.15-9.42-3.96-15.45l6.22-32.14h31.66L33.6,282.5h29.97l4.9-25.16
			c1.32-6.85-3.02-10.27-13.01-10.27c-13.07,0-23.28-3.49-30.63-10.46c-7.92-7.41-10.68-17.21-8.29-29.4l6.41-32.89
			c1.19-6.03,4.52-11.18,9.99-15.46c5.4-4.21,11.28-6.31,17.62-6.31h46.55c6.35,0,11.4,2.11,15.17,6.31
			c3.83,4.27,5.15,9.42,3.96,15.46l-6.22,32.04H78.36L83.07,182.04z"/>
		<path class="st0" d="M287.2,152.55l-31,159.45h-31.66l20.45-105.08L202.47,312h-38.45l-1.79-105.08L141.78,312h-31.66l31-159.45
			h43.92l4.05,129.58l54.19-129.58H287.2z"/>
		<path class="st0" d="M317.16,279.68L304.44,312H272.4l61.92-159.45h42.13L376.25,312h-32.14l0.09-32.32H317.16z M328.66,250.18
			h15.45l5.47-67.95L328.66,250.18z"/>
		<path class="st0" d="M432.04,255.17L421.01,312h-31.66l31-159.45h69.93c6.35,0,11.4,2.11,15.17,6.31
			c3.83,4.27,5.15,9.42,3.96,15.46l-8.01,41.09c-2.01,10.43-7.67,18.75-16.96,24.97c6.85,6.22,9.27,14.61,7.26,25.16L482.65,312
			h-31.66l9.05-46.46c0.57-2.89-0.09-5.37-1.98-7.44c-1.88-1.95-4.33-2.92-7.35-2.92H432.04z M456.45,225.68
			c3.02,0,5.84-1,8.48-3.02c2.64-1.95,4.24-4.37,4.81-7.26l6.5-33.36h-29.97l-8.48,43.63H456.45z"/>
		<path class="st0" d="M551.54,182.04h-30.91l5.75-29.5h93.3l-5.75,29.5H583.1L557.85,312h-31.57L551.54,182.04z"/>
	</g>
</g>
</svg>
