<?xml version="1.0" encoding="utf-8"?>
<!-- Generator: Adobe Illustrator 25.0.0, SVG Export Plug-In . SVG Version: 6.00 Build 0)  -->
<svg version="1.1" id="Layer_1" xmlns="http://www.w3.org/2000/svg" xmlns:xlink="http://www.w3.org/1999/xlink" x="0px" y="0px"
	 viewBox="0 0 32.78 30.45" style="enable-background:new 0 0 32.78 30.45;" xml:space="preserve">
<style type="text/css">
	.st0{fill:#FFFFFF;}
</style>
<g>
	<path class="st0" d="M3.02,20.17c-0.48-0.06-0.85-0.47-0.85-0.96c0-2.67,0.01-5.25-0.01-7.82c-0.01-0.9,0.35-1.41,1.24-1.22
		c2.75,0.6,4.41-0.91,6-2.82c1.45-1.75,3.06-3.36,4.64-4.99c0.06-0.07,0.14-0.13,0.22-0.18c0.62-0.43,1.5,0,1.51,0.75l0,0.01
		c0.03,8.17,0.03,16.35,0,24.52c0,0.05,0,0.09-0.01,0.14c-0.08,0.72-0.91,1.08-1.51,0.67c-0.07-0.05-0.14-0.1-0.19-0.16
		c-1.99-2.07-3.97-4.15-5.87-6.3c-0.98-1.11-1.96-1.92-3.59-1.58C4.15,20.32,3.64,20.25,3.02,20.17z"/>
	<path class="st0" d="M30.61,14.61c0.11,3.66-0.96,6.9-3.38,9.67c-0.77,0.88-1.66,1.6-2.74,0.59c-0.99-0.93-0.42-1.81,0.31-2.67
		c3.42-4.02,3.94-9.53-0.03-13.97c-0.77-0.86-1.24-1.77-0.24-2.67c1.02-0.92,1.86-0.27,2.63,0.55C29.16,8.2,30.54,11.68,30.61,14.61
		z"/>
	<path class="st0" d="M22.67,13.29c0.57,1.23,0.57,2.66,0,3.89c-0.34,0.74-0.68,1.44-1.09,2.09c-0.56,0.89-1.55,1.05-2.39,0.31
		c-0.77-0.68-0.67-1.47-0.02-2.29c1.07-1.35,1.05-2.76,0.02-4.07c-0.62-0.78-0.8-1.6-0.03-2.32c0.82-0.77,1.83-0.65,2.39,0.24
		C21.97,11.82,22.33,12.54,22.67,13.29z"/>
</g>
</svg>
