<?xml version="1.0" encoding="utf-8"?>
<!-- Generator: Adobe Illustrator 17.0.0, SVG Export Plug-In . SVG Version: 6.00 Build 0)  -->
<!DOCTYPE svg PUBLIC "-//W3C//DTD SVG 1.1//EN" "http://www.w3.org/Graphics/SVG/1.1/DTD/svg11.dtd">
<svg version="1.1" id="Layer_1" xmlns="http://www.w3.org/2000/svg" xmlns:xlink="http://www.w3.org/1999/xlink" x="0px" y="0px"
	 width="186.551px" height="186.552px" viewBox="0 0 186.551 186.552" enable-background="new 0 0 186.551 186.552"
	 xml:space="preserve">
<g>
	<defs>
		<rect id="SVGID_1_" width="186.551" height="186.552"/>
	</defs>
	<clipPath id="SVGID_2_">
		<use xlink:href="#SVGID_1_"  overflow="visible"/>
	</clipPath>
	<path clip-path="url(#SVGID_2_)" fill="#F37321" d="M186.551,93.276c0,51.515-41.76,93.276-93.275,93.276S0,144.791,0,93.276
		S41.761,0,93.276,0S186.551,41.761,186.551,93.276"/>
	<path clip-path="url(#SVGID_2_)" fill="#F5F5F6" d="M93.261,63.015h-0.168c-3.406,0.072-6.227,2.09-7.341,5.148l-11.63,31.368
		c-0.733,1.778-1.9,2.144-2.751,2.144c-0.833-0.024-2.172-0.355-2.792-2.308L57.027,59.824c-0.972-3.309-4.056-5.618-7.5-5.618
		c-0.744,0-1.487,0.109-2.207,0.318l-0.234,0.069c-2.009,0.591-3.661,1.922-4.665,3.754c-0.999,1.834-1.228,3.947-0.639,5.951
		l20.209,69.326c0.369,2.164,1.543,4.028,3.252,5.222c0.112,0.077,0.216,0.152,0.324,0.222l0.134,0.082
		c0.885,0.542,1.834,0.898,2.844,1.064c2.569,0.468,5.142-0.371,6.93-2.157l0.341-0.355c0.921-1.014,1.557-2.125,1.858-3.226
		l12.736-33.264c0.687-1.898,2.021-2.183,2.756-2.183c0.907,0.007,2.101,0.397,2.775,2.224l13.153,33.926
		c1.124,3.099,4.098,5.166,7.401,5.166c0.296,0,0.597-0.015,0.897-0.051c3.258-0.285,5.938-2.478,6.854-5.584l20.524-70.409
		c0.59-2.007,0.358-4.12-0.641-5.954c-1.003-1.832-2.656-3.163-4.659-3.751l-0.244-0.072c-0.717-0.209-1.46-0.318-2.2-0.318
		c-3.446,0-6.529,2.309-7.5,5.62l-11.561,39.521c-0.627,1.973-1.961,2.304-2.705,2.328h-0.004c-0.945,0-2.109-0.37-2.828-2.115
		l-11.727-31.39c-1.11-3.065-3.934-5.083-7.193-5.15"/>
</g>
</svg>
