<?xml version="1.0" encoding="utf-8"?>
<!-- Generator: Adobe Illustrator 25.0.0, SVG Export Plug-In . SVG Version: 6.00 Build 0)  -->
<svg version="1.1" id="Layer_1" xmlns="http://www.w3.org/2000/svg" xmlns:xlink="http://www.w3.org/1999/xlink" x="0px" y="0px"
	 viewBox="0 0 266.84 43.63" style="enable-background:new 0 0 266.84 43.63;" xml:space="preserve">
<style type="text/css">
	.st0{clip-path:url(#XMLID_3_);fill:url(#XMLID_4_);}
	.st1{fill:#006BB1;}
</style>
<g id="XMLID_1_">
	<g id="XMLID_34_">
		<defs>
			<path id="XMLID_35_" d="M3.2,4.52c1.82,1.93,2.43,3.8,2.43,5.79C5.63,16.99,0,21.73,0,29.39c0,7.06,4.94,14.24,19.21,14.24
				c12.73,0,19.43-6.23,19.43-12.86c0-5.68-4.08-10.49-11.95-11.25l-0.11,0.28c1.81,0.8,5.86,3.95,5.86,10.3
				c0,5.97-5.04,12-12.96,12c-9.86,0-13.25-5.75-13.25-11.05c0-6.78,4.74-11.3,4.74-17.48c0-4.3-3.25-8.54-7.61-9.31L3.2,4.52z"/>
		</defs>
		<clipPath id="XMLID_3_">
			<use xlink:href="#XMLID_35_"  style="overflow:visible;"/>
		</clipPath>
		
			<linearGradient id="XMLID_4_" gradientUnits="userSpaceOnUse" x1="-53.9372" y1="41.1618" x2="-53.034" y2="41.1618" gradientTransform="matrix(42.7856 0 0 -42.7856 2307.7346 1785.0724)">
			<stop  offset="0" style="stop-color:#EA6924"/>
			<stop  offset="0.3" style="stop-color:#EA6924"/>
			<stop  offset="0.7" style="stop-color:#EDA428"/>
			<stop  offset="1" style="stop-color:#EDA428"/>
		</linearGradient>
		<rect id="XMLID_36_" x="0" y="4.25" class="st0" width="38.64" height="39.38"/>
	</g>
	<g id="XMLID_20_">
		<path id="XMLID_21_" class="st1" d="M82.6,42.5L65.68,20.69v19.66l3.45,0.82v0.93h-7.87v-0.93l2.81-0.82V18.93
			c-0.28-0.26-1.34-1.13-2.43-1.37c-0.34-0.07-0.81-0.15-0.81-0.15v-0.92h6.68L82,35.27V18.24l-3.45-0.83v-0.93h7.87v0.93
			l-2.82,0.83v19.5c0,1.78,0.13,4.43,0.15,4.77H82.6z M117.97,28.61c0,9.07-6.29,14.27-13.23,14.27c-7.02,0-13.23-5.32-13.23-13.58
			c0-8.33,6.29-13.62,13.19-13.62C113.18,15.69,117.97,22.29,117.97,28.61 M113.57,29.96c0-6.63-3.97-13.08-9.37-13.08
			c-5.75,0-8.33,5.55-8.33,11.5c0,5.9,3.28,13.31,9.45,13.31C111.1,41.69,113.57,35.83,113.57,29.96 M123.44,18.24l-2.69-0.83v-0.93
			h10.38v0.93l-3.25,0.83l7.17,19.53h0.04l7.17-19.53l-3.25-0.83v-0.93h7.68v0.93l-2.67,0.83l-9.08,24.33h-2.3L123.44,18.24z
			 M184.75,29.02h-1.65V17.83c5.46,0,8.64,1.24,8.64,5.67C191.75,26.79,188.91,29.02,184.75,29.02 M231.19,41.17l3.58-0.82V18.24
			l-3.58-0.83v-0.93h11.26v0.93l-3.59,0.83v22.11l3.59,0.82v0.93h-11.27V41.17z M249.35,35.05h0.71l2.4,5.51
			c0.72,0.36,2.51,1.13,4.58,1.13c3.1,0,5.94-1.85,5.94-5.04c0-2.46-1.58-3.93-4.16-5.27c-0.83-0.43-1.68-0.88-2.55-1.32
			c-3.05-1.58-6.08-3.82-6.08-7.43c0-3.91,2.75-6.94,8.51-6.94c2.97,0,5.5,0.82,6,0.99l0.6,5.93h-0.77l-2.22-4.75
			c-0.41-0.21-1.75-0.97-3.71-0.97c-2.93,0-4.93,1.81-4.93,4.31c0,2.27,1.51,3.69,4.09,5.03c0.96,0.49,2.01,1.05,3.02,1.57
			c4.11,2.14,6.07,4.1,6.07,7.77c0,4.52-4.23,7.32-9.5,7.32c-4.03,0-6.49-0.83-7.31-1.08L249.35,35.05z M144.94,41.17l2.9-0.82
			l8.95-23.87l2.99-0.77l9.24,24.64l2.9,0.82v0.93h-10.97v-0.93l3.71-0.82l-2.62-7.08h-9.84l-2.6,7.08l3.71,0.82v0.93h-8.37V41.17z
			 M152.87,31.37h8.52l-4.23-11.42h-0.04L152.87,31.37z M189.91,29.58c0.88-0.23,5.97-1.52,5.97-6.36c0-3.86-2.96-6.85-10.23-6.85
			c-4.5,0-9.05,0.1-9.6,0.12v0.92l2.97,0.83v22.1l-2.97,0.83v0.93h10.52v-0.93l-3.46-0.82v-9.99h2.97l7.6,11.74h6.72v-0.88
			L197,40.35L189.91,29.58z M212.11,17.83v22.51l-3.59,0.82v0.93h11.26v-0.93l-3.58-0.82V17.83h6.08l2,4.28h0.77l-0.58-5.63h-20.63
			l-0.58,5.63h0.77l1.99-4.28H212.11z M19.38,34.13L22.96,0l-7.5,0l3.58,34.13H19.38z"/>
	</g>
</g>
</svg>
