<?xml version="1.0" encoding="utf-8"?>
<!-- Generator: Adobe Illustrator 25.0.0, SVG Export Plug-In . SVG Version: 6.00 Build 0)  -->
<svg version="1.1" id="Layer_1" xmlns="http://www.w3.org/2000/svg" xmlns:xlink="http://www.w3.org/1999/xlink" x="0px" y="0px"
	 viewBox="0 0 94 96" style="enable-background:new 0 0 94 96;" xml:space="preserve">
<style type="text/css">
	.st0{fill:#a87a24;}
</style>
<g>
	<g>
		<g>
			<g>
				<path class="st0" d="M78.92,91.46H15.02c-6.1,0-11.07-4.96-11.07-11.07V24.14c0-6.1,4.96-11.07,11.07-11.07h63.89
					c6.1,0,11.07,4.96,11.07,11.07v56.25C89.98,86.49,85.02,91.46,78.92,91.46z M15.02,19.07c-2.8,0-5.07,2.27-5.07,5.07v56.25
					c0,2.8,2.27,5.07,5.07,5.07h63.89c2.8,0,5.07-2.27,5.07-5.07V24.14c0-2.8-2.27-5.07-5.07-5.07H15.02z"/>
				<g>
					<path class="st0" d="M29.44,26.11c-1.66,0-3-1.34-3-3V7.53c0-1.66,1.34-3,3-3c1.66,0,3,1.34,3,3v15.59
						C32.43,24.77,31.09,26.11,29.44,26.11z"/>
					<path class="st0" d="M64.5,26.11c-1.66,0-3-1.34-3-3V7.53c0-1.66,1.34-3,3-3c1.66,0,3,1.34,3,3v15.59
						C67.5,24.77,66.16,26.11,64.5,26.11z"/>
				</g>
				<g>
					<path class="st0" d="M24.85,43.5h-6.13c-1.62,0-2.93-1.31-2.93-2.93v-3.43c0-1.62,1.31-2.93,2.93-2.93h6.13
						c1.62,0,2.93,1.31,2.93,2.93v3.43C27.79,42.18,26.47,43.5,24.85,43.5z"/>
					<path class="st0" d="M41.64,43.5h-6.13c-1.62,0-2.93-1.31-2.93-2.93v-3.43c0-1.62,1.31-2.93,2.93-2.93h6.13
						c1.62,0,2.93,1.31,2.93,2.93v3.43C44.57,42.18,43.26,43.5,41.64,43.5z"/>
					<path class="st0" d="M58.43,43.5H52.3c-1.62,0-2.93-1.31-2.93-2.93v-3.43c0-1.62,1.31-2.93,2.93-2.93h6.13
						c1.62,0,2.93,1.31,2.93,2.93v3.43C61.36,42.18,60.05,43.5,58.43,43.5z"/>
					<path class="st0" d="M75.21,43.5h-6.13c-1.62,0-2.93-1.31-2.93-2.93v-3.43c0-1.62,1.31-2.93,2.93-2.93h6.13
						c1.62,0,2.93,1.31,2.93,2.93v3.43C78.14,42.18,76.83,43.5,75.21,43.5z"/>
				</g>
				<g>
					<path class="st0" d="M24.85,59.68h-6.13c-1.62,0-2.93-1.31-2.93-2.93v-3.43c0-1.62,1.31-2.93,2.93-2.93h6.13
						c1.62,0,2.93,1.31,2.93,2.93v3.43C27.79,58.37,26.47,59.68,24.85,59.68z"/>
					<path class="st0" d="M41.64,59.68h-6.13c-1.62,0-2.93-1.31-2.93-2.93v-3.43c0-1.62,1.31-2.93,2.93-2.93h6.13
						c1.62,0,2.93,1.31,2.93,2.93v3.43C44.57,58.37,43.26,59.68,41.64,59.68z"/>
					<path class="st0" d="M58.43,59.68H52.3c-1.62,0-2.93-1.31-2.93-2.93v-3.43c0-1.62,1.31-2.93,2.93-2.93h6.13
						c1.62,0,2.93,1.31,2.93,2.93v3.43C61.36,58.37,60.05,59.68,58.43,59.68z"/>
					<path class="st0" d="M75.21,59.68h-6.13c-1.62,0-2.93-1.31-2.93-2.93v-3.43c0-1.62,1.31-2.93,2.93-2.93h6.13
						c1.62,0,2.93,1.31,2.93,2.93v3.43C78.14,58.37,76.83,59.68,75.21,59.68z"/>
				</g>
				<g>
					<path class="st0" d="M24.85,75.87h-6.13c-1.62,0-2.93-1.31-2.93-2.93v-3.43c0-1.62,1.31-2.93,2.93-2.93h6.13
						c1.62,0,2.93,1.31,2.93,2.93v3.43C27.79,74.56,26.47,75.87,24.85,75.87z"/>
					<path class="st0" d="M41.64,75.87h-6.13c-1.62,0-2.93-1.31-2.93-2.93v-3.43c0-1.62,1.31-2.93,2.93-2.93h6.13
						c1.62,0,2.93,1.31,2.93,2.93v3.43C44.57,74.56,43.26,75.87,41.64,75.87z"/>
					<path class="st0" d="M58.43,75.87H52.3c-1.62,0-2.93-1.31-2.93-2.93v-3.43c0-1.62,1.31-2.93,2.93-2.93h6.13
						c1.62,0,2.93,1.31,2.93,2.93v3.43C61.36,74.56,60.05,75.87,58.43,75.87z"/>
					<path class="st0" d="M75.21,75.87h-6.13c-1.62,0-2.93-1.31-2.93-2.93v-3.43c0-1.62,1.31-2.93,2.93-2.93h6.13
						c1.62,0,2.93,1.31,2.93,2.93v3.43C78.14,74.56,76.83,75.87,75.21,75.87z"/>
				</g>
			</g>
		</g>
	</g>
</g>
</svg>
