<?xml version="1.0" encoding="utf-8"?>
<!-- Generator: Adobe Illustrator 25.0.0, SVG Export Plug-In . SVG Version: 6.00 Build 0)  -->
<svg version="1.1" id="Layer_2" xmlns="http://www.w3.org/2000/svg" xmlns:xlink="http://www.w3.org/1999/xlink" x="0px" y="0px"
	 viewBox="0 0 105 70" style="enable-background:new 0 0 105 70;" xml:space="preserve">
<style type="text/css">
	.st0{fill:#A87B25;}
</style>
<g transform="translate(0,-280.06665)">
	<g>
		<path class="st0" d="M5.25,280.07c-2.88,0-5.25,2.37-5.25,5.25v49c0,2.88,2.37,5.25,5.25,5.25h24.53
			c-0.04,0.33-0.11,0.71-0.22,1.16c-0.41,1.57-1.41,3.66-3.95,5.84h-2.86c-2.33,0-2.33,3.5,0,3.5h21.01c2.33,0,2.33-3.5,0-3.5H30.45
			c1.36-1.77,2.12-3.49,2.5-4.96c0.2-0.76,0.28-1.43,0.32-2.04h10.49c2.37,0.03,2.37-3.53,0-3.5H5.25c-1,0-1.75-0.75-1.75-1.75
			v-8.75h40.25c2.37,0.03,2.37-3.53,0-3.5H3.5v-36.75c0-1,0.75-1.75,1.75-1.75h66.5c1,0,1.75,0.75,1.75,1.75
			c-0.03,2.37,3.53,2.37,3.5,0c0-2.88-2.37-5.25-5.25-5.25L5.25,280.07z M54.25,290.56c-2.88,0-5.26,2.38-5.26,5.26v49
			c0,2.88,2.38,5.24,5.26,5.24h20.99c2.33,0,2.33-3.5,0-3.5H54.25c-1,0-1.76-0.74-1.76-1.74v-8.75h22.75c2.33,0,2.33-3.5,0-3.5H52.5
			v-31.51h35.01v5.26c0,2.33,3.5,2.33,3.5,0v-10.5c0-2.88-2.38-5.26-5.26-5.26H54.25z M8.73,294.04c-0.97,0.01-1.75,0.81-1.73,1.78
			v3.5c0,2.33,3.5,2.33,3.5,0v-3.5C10.52,294.83,9.71,294.03,8.73,294.04z M54.25,294.06h31.5c1,0,1.76,0.76,1.76,1.76v1.74H52.5
			v-1.74C52.5,294.82,53.25,294.06,54.25,294.06z M8.73,304.54c-0.97,0.01-1.75,0.81-1.73,1.78v10.49c0,2.33,3.5,2.33,3.5,0v-10.49
			C10.52,305.34,9.71,304.53,8.73,304.54z M57.73,304.54c-0.97,0.01-1.75,0.81-1.73,1.78v3.5c0,2.33,3.5,2.33,3.5,0v-3.5
			C59.52,305.34,58.72,304.53,57.73,304.54z M85.75,311.57c-2.88,0-5.25,2.37-5.25,5.24v28.01c0,2.88,2.37,5.24,5.25,5.24h14
			c2.88,0,5.24-2.37,5.24-5.24v-28.01c0-2.88-2.37-5.24-5.24-5.24H85.75z M57.73,315.04c-0.97,0.01-1.74,0.8-1.73,1.77v10.5
			c0,2.33,3.5,2.33,3.5,0v-10.5C59.51,315.83,58.71,315.03,57.73,315.04z M85.75,315.07h14c1,0,1.74,0.74,1.74,1.74v1.76H84.01
			v-1.76C84.01,315.81,84.75,315.07,85.75,315.07L85.75,315.07z M84.01,322.07h17.49v17.49H84.01V322.07z M36.75,332.58h3.5
			c2.33,0,2.33-3.5,0-3.5h-3.59C34.25,329.19,34.41,332.69,36.75,332.58z M68.26,339.56c-2.33,0-2.33,3.5,0,3.5h3.5
			c2.33,0,2.33-3.5,0-3.5H68.26z M84.01,343.06h17.49v1.76c0,1-0.74,1.74-1.74,1.74h-14c-1,0-1.74-0.74-1.74-1.74L84.01,343.06z"/>
	</g>
</g>
</svg>
