<?xml version="1.0" encoding="utf-8"?>
<!-- Generator: Adobe Illustrator 25.0.0, SVG Export Plug-In . SVG Version: 6.00 Build 0)  -->
<svg version="1.1" id="Layer_2" xmlns="http://www.w3.org/2000/svg" xmlns:xlink="http://www.w3.org/1999/xlink" x="0px" y="0px"
	 viewBox="0 0 70.08 70" style="enable-background:new 0 0 70.08 70;" xml:space="preserve">
<style type="text/css">
	.st0{fill:#A87B25;}
</style>
<g>
	<g>
		<path class="st0" d="M24.19,40.29L7.78,56.7v-6.14c0-2.1-1.71-3.89-3.89-3.89c-2.1,0-3.89,1.79-3.89,3.89v15.56
			c0,1.01,0.39,2.02,1.17,2.72C1.87,69.53,2.88,70,3.89,70h15.56c2.18,0,3.89-1.71,3.89-3.89c0-2.18-1.71-3.89-3.89-3.89H13.3
			l16.41-16.41c0.7-0.7,1.17-1.71,1.17-2.72s-0.39-2.02-1.17-2.72C28.23,38.73,25.74,38.73,24.19,40.29z"/>
		<path class="st0" d="M13.3,8.09h6.14c2.18,0,3.89-1.71,3.89-3.89c0-1.01-0.39-2.02-1.17-2.72c-0.7-0.7-1.71-1.17-2.72-1.17H3.89
			c-1.01,0-2.02,0.39-2.72,1.17C0.39,2.18,0,3.11,0,4.2v15.56c0,2.18,1.71,3.89,3.89,3.89s3.89-1.71,3.89-3.89v-6.14l16.57,16.64
			c0.7,0.7,1.71,1.17,2.72,1.17s2.02-0.39,2.72-1.17c0.7-0.7,1.17-1.71,1.17-2.72s-0.39-2.02-1.17-2.72L13.3,8.09z"/>
		<path class="st0" d="M66.11,46.67c-2.18,0-3.89,1.71-3.89,3.89v6.14L45.81,40.44c-0.7-0.7-1.71-1.17-2.8-1.17s-2.02,0.39-2.8,1.17
			c-0.7,0.7-1.17,1.71-1.17,2.72c0,1.01,0.39,2.02,1.09,2.72l16.26,16.33h-6.14c-2.18,0-3.89,1.71-3.89,3.89
			c0,1.01,0.39,2.02,1.17,2.72c0.7,0.7,1.71,1.17,2.72,1.17H65.8c1.09,0,2.26-0.47,2.96-1.17c0.47-0.47,1.32-1.48,1.32-2.72V50.56
			C70,48.38,68.29,46.67,66.11,46.67z"/>
		<path class="st0" d="M42.7,31.19c1.01,0,2.02-0.39,2.72-1.17l16.8-16.72v6.14c0,2.18,1.71,3.89,3.89,3.89
			c2.18,0,3.89-1.71,3.89-3.89V3.89c0-1.01-0.39-2.02-1.17-2.72C68.13,0.39,67.12,0,66.11,0H50.56c-2.18,0-3.89,1.71-3.89,3.89
			s1.71,3.89,3.89,3.89h6.14l-16.72,16.8c-0.7,0.7-1.17,1.71-1.17,2.72s0.39,2.02,1.17,2.72C40.68,30.8,41.69,31.19,42.7,31.19z"/>
	</g>
</g>
</svg>
