<?xml version="1.0" encoding="utf-8"?>
<!-- Generator: Adobe Illustrator 25.0.0, SVG Export Plug-In . SVG Version: 6.00 Build 0)  -->
<svg version="1.1" id="Layer_2" xmlns="http://www.w3.org/2000/svg" xmlns:xlink="http://www.w3.org/1999/xlink" x="0px" y="0px"
	 viewBox="0 0 73.9 70" style="enable-background:new 0 0 73.9 70;" xml:space="preserve">
<style type="text/css">
	.st0{fill:#A87B25;}
</style>
<path class="st0" d="M65.44,42.26c-0.85,0-1.69,0.18-2.46,0.49c-0.77-0.33-1.62-0.49-2.46-0.49c-3.59,0-6.49,2.92-6.49,6.49v14.74
	c0,3.59,2.92,6.49,6.49,6.49c0.85,0,1.69-0.18,2.46-0.49c0.77,0.33,1.62,0.49,2.46,0.49c3.59,0,6.49-2.92,6.49-6.49v-7.87h1.97
	V36.95C73.9,16.56,57.31,0,36.95,0S0,16.59,0,36.97v18.67h1.97v7.87C1.97,67.1,4.9,70,8.46,70c0.85,0,1.69-0.18,2.46-0.49
	c0.77,0.33,1.62,0.49,2.46,0.49c3.59,0,6.49-2.92,6.49-6.49V48.77c0-3.59-2.92-6.49-6.49-6.49c-0.85,0-1.69,0.18-2.46,0.49
	c-0.77-0.33-1.62-0.49-2.46-0.49c-1.23,0-2.36,0.36-3.33,0.95v-6.26c0-17.54,14.28-31.82,31.85-31.82s31.82,14.28,31.82,31.82v6.26
	C67.79,42.62,66.67,42.26,65.44,42.26z M60.44,64.85c-0.69-0.05-1.26-0.64-1.26-1.33V48.77c0-0.72,0.59-1.23,1.26-1.31V64.85z
	 M66.82,63.49c0,0.72-0.56,1.28-1.26,1.33V47.44c0.67,0.08,1.26,0.59,1.26,1.31V63.49z M13.46,47.46c0.67,0.08,1.26,0.59,1.26,1.31
	v14.74c0,0.72-0.59,1.23-1.26,1.31V47.46z M7.08,48.77c0-0.72,0.59-1.23,1.26-1.31v17.33c-0.67-0.08-1.26-0.59-1.26-1.31L7.08,48.77
	z"/>
</svg>
