<?xml version="1.0" encoding="utf-8"?>
<!-- Generator: Adobe Illustrator 25.0.0, SVG Export Plug-In . SVG Version: 6.00 Build 0)  -->
<svg version="1.1" id="Layer_1" xmlns="http://www.w3.org/2000/svg" xmlns:xlink="http://www.w3.org/1999/xlink" x="0px" y="0px"
	 viewBox="0 0 202.53 50.63" style="enable-background:new 0 0 202.53 50.63;" xml:space="preserve">
<style type="text/css">
	.st0{fill:#0098C6;}
	.st1{fill:#010101;}
</style>
<g>
	<path class="st0" d="M54.88,0H0v8.44h52.14v0.01c1.51,0,2.71,1.21,2.71,2.71v28.32l-0.01,0.03c0,1.49-1.23,2.7-2.72,2.7H11.15
		c-1.5,0-2.73-1.22-2.73-2.73V28.04c0-1.5,1.23-2.72,2.73-2.72h35.26v-8.42h-38c-4.65,0-8.41,3.76-8.41,8.4v16.93
		c0,4.65,3.76,8.41,8.41,8.41h46.47c4.65,0,8.41-3.76,8.41-8.41V8.41C63.29,3.77,59.53,0,54.88,0"/>
	<path class="st1" d="M86.13,26.28h5.71l-2.83-8.47h-0.08L86.13,26.28z M94.45,11.96l6.57,19.67c0.78,2.4,1.33,2.95,2.7,2.95h1.34
		v3.47H90.71v-3.47h1.18c1.18,0,2.16-0.16,2.16-0.58c0-0.4-0.04-0.83-0.2-1.42l-0.82-2.83H85l-0.48,1.57
		c-0.43,1.38-0.59,1.96-0.59,2.51c0,0.64,1.38,0.75,2.45,0.75h1.13v3.47H75.95v-3.47h1.34c1.38,0,1.92-0.55,2.72-2.95l6.57-19.67
		H94.45z"/>
	<path class="st1" d="M113.88,28.83c0,4.02,0.9,6.41,3.1,6.41c2.21,0,3.11-2.39,3.11-6.41c0-4.01-0.89-6.41-3.11-6.41
		C114.78,22.42,113.88,24.82,113.88,28.83 M107.34,16.8c0-1.11-0.27-1.69-1.42-1.69h-1.81v-3.15h9.76v9.79
		c1.45-1.65,3.31-2.71,5.07-2.71c5.9,0,8.1,4.61,8.1,9.79c0,5.19-2.2,9.79-8.1,9.79c-2.48,0-4.68-0.86-6.05-3.03l-1.14,2.45h-4.41
		V16.8z"/>
	<path class="st1" d="M135.95,28.83c0,4.02,0.91,6.41,3.11,6.41c2.21,0,3.11-2.39,3.11-6.41c0-4.01-0.9-6.41-3.11-6.41
		C136.86,22.42,135.95,24.82,135.95,28.83 M129.42,16.8c0-1.11-0.28-1.69-1.41-1.69h-1.82v-3.15h9.76v9.79
		c1.46-1.65,3.31-2.71,5.07-2.71c5.9,0,8.11,4.61,8.11,9.79c0,5.19-2.21,9.79-8.11,9.79c-2.48,0-4.68-0.86-6.06-3.03l-1.14,2.45
		h-4.41V16.8z"/>
	<path class="st1" d="M157.99,28.83c0,4.64,0.82,6.65,3.18,6.65c2.36,0,3.18-2.01,3.18-6.65c0-4.64-0.82-6.65-3.18-6.65
		C158.81,22.18,157.99,24.19,157.99,28.83 M171.32,28.83c0,6.3-4.29,9.8-10.15,9.8c-5.87,0-10.15-3.5-10.15-9.8
		c0-6.29,4.29-9.79,10.15-9.79C167.03,19.03,171.32,22.54,171.32,28.83"/>
	<path class="st1" d="M199.38,29.15v3.07c0,1.81-0.39,2.88-1.89,2.88c-0.9,0-1.33-0.67-1.33-1.5V22.77h4.83v-3.14h-4.83v-7.31h-3.91
		c-0.32,3.26-1.33,7.31-5.27,7.31h-6.14v-7.31h-3.89c-0.32,3.26-1.34,7.31-5.27,7.31v3.14h2.64v9.88c0,4.01,2.24,5.98,6.29,5.98
		c4.73,0,6.61-2.12,6.61-5.98v-3.5h-3.14v3.07c0,1.81-0.4,2.88-1.89,2.88c-0.91,0-1.34-0.67-1.34-1.5V22.77h8.78v9.88
		c0,4.01,2.23,5.98,6.29,5.98c4.72,0,6.61-2.12,6.61-5.98v-3.5H199.38z"/>
</g>
</svg>
