<?xml version="1.0" encoding="utf-8"?>
<!-- Generator: Adobe Illustrator 25.0.0, SVG Export Plug-In . SVG Version: 6.00 Build 0)  -->
<svg version="1.1" id="Layer_2" xmlns="http://www.w3.org/2000/svg" xmlns:xlink="http://www.w3.org/1999/xlink" x="0px" y="0px"
	 viewBox="0 0 41.21 39.94" style="enable-background:new 0 0 41.21 39.94;" xml:space="preserve">
<style type="text/css">
	.st0{fill:#FFFFFF;}
</style>
<g>
	<g>
		<path class="st0" d="M21.21,21.03l-13.47,1.3L4.19,33.67c-0.29,0.93,0.22,1.91,1.15,2.21c0.43,0.14,0.9,0.1,1.3-0.1l29.53-14.3
			c0.83-0.41,1.18-1.41,0.77-2.25c-0.16-0.34-0.44-0.61-0.77-0.77L6.66,4.16C5.79,3.73,4.73,4.09,4.31,4.97
			c-0.2,0.41-0.23,0.87-0.1,1.3l3.55,11.34l13.45,1.3c0.58,0.06,1.01,0.58,0.95,1.16c-0.05,0.5-0.45,0.9-0.95,0.95L21.21,21.03z"/>
	</g>
</g>
</svg>
