<?xml version="1.0" encoding="utf-8"?>
<!-- Generator: Adobe Illustrator 25.0.0, SVG Export Plug-In . SVG Version: 6.00 Build 0)  -->
<svg version="1.1" id="Layer_2" xmlns="http://www.w3.org/2000/svg" xmlns:xlink="http://www.w3.org/1999/xlink" x="0px" y="0px"
	 viewBox="0 0 66.12 70" style="enable-background:new 0 0 66.12 70;" xml:space="preserve">
<style type="text/css">
	.st0{fill:#A87B25;}
</style>
<path class="st0" d="M60.07,40.02c0.19-0.99,0.32-1.98,0.39-2.99l0,0c0-0.66,0-1.36,0-2.04c0-0.68,0-1.36,0-2.04
	c-0.08-1-0.2-2.01-0.38-3l-0.12-0.62l5.65-5.43c0.56-0.54,0.68-1.39,0.3-2.06l-4.99-8.67c-0.39-0.67-1.19-0.99-1.94-0.77l-7.55,2.16
	l-0.49-0.42c-0.76-0.65-1.56-1.26-2.39-1.83c-1.13-0.77-2.31-1.45-3.54-2.05c-0.9-0.44-1.83-0.82-2.78-1.15l-0.6-0.2l-1.9-7.63
	C39.53,0.52,38.85-0.01,38.07,0h-9.96c-0.78-0.01-1.46,0.52-1.66,1.28l-1.9,7.61l-0.6,0.22c-0.95,0.33-1.88,0.72-2.78,1.15
	c-1.23,0.6-2.41,1.29-3.54,2.05c-0.83,0.57-1.63,1.18-2.39,1.83l-0.49,0.42L7.21,12.4c-0.75-0.22-1.55,0.1-1.94,0.77l-4.99,8.64
	c-0.39,0.66-0.29,1.51,0.24,2.06l5.65,5.43l-0.12,0.62c-0.18,0.98-0.3,1.99-0.38,3c0,0.66-0.07,1.36-0.07,2.04
	c0,0.68,0,1.36,0.07,2.04c0.08,1,0.21,2,0.39,2.99v0.72l-0.37,0.35l-5.17,5.05c-0.56,0.54-0.68,1.39-0.28,2.06l4.98,8.64
	C5.6,57.5,6.4,57.81,7.15,57.6l7.56-2.16l0.49,0.42c1.8,1.54,3.79,2.84,5.92,3.87c0.9,0.44,1.83,0.83,2.78,1.15l0.6,0.22l1.9,7.63
	c0.19,0.76,0.88,1.28,1.66,1.28h9.96c0.78,0.01,1.46-0.52,1.66-1.28l1.9-7.63l0.6-0.22c0.95-0.33,1.88-0.71,2.78-1.15
	c1.23-0.59,2.41-1.27,3.53-2.04c0.83-0.57,1.63-1.18,2.4-1.83l0.47-0.42l7.56,2.17c0.75,0.21,1.55-0.12,1.94-0.79l4.99-8.64
	c0.41-0.65,0.33-1.5-0.19-2.06l-5.65-5.43L60.07,40.02z M33.09,47.96c-7.16,0-12.96-5.8-12.96-12.96s5.8-12.96,12.96-12.96
	S46.05,27.84,46.05,35v0C46.03,42.15,40.24,47.95,33.09,47.96z"/>
</svg>
