<?xml version="1.0" encoding="utf-8"?>
<!-- Generator: Adobe Illustrator 25.0.0, SVG Export Plug-In . SVG Version: 6.00 Build 0)  -->
<svg version="1.1" id="Layer_2" xmlns="http://www.w3.org/2000/svg" xmlns:xlink="http://www.w3.org/1999/xlink" x="0px" y="0px"
	 viewBox="0 0 69 69" style="enable-background:new 0 0 69 69;" xml:space="preserve">
<style type="text/css">
	.st0{fill:#A87B25;}
</style>
<g>
	<path id="WhatsApp" class="st0" d="M69,33.61c0,18.56-15.16,33.61-33.87,33.61c-5.94,0-11.52-1.52-16.37-4.18L0,69l6.11-18.03
		c-3.08-5.06-4.86-11-4.86-17.36C1.25,15.05,16.42,0,35.13,0C53.84,0,69,15.05,69,33.61z M35.13,5.35
		c-15.7,0-28.48,12.68-28.48,28.26c0,6.18,2.02,11.91,5.42,16.57L8.52,60.67l10.94-3.48c4.5,2.95,9.88,4.67,15.67,4.67
		c15.7,0,28.48-12.68,28.48-28.26S50.83,5.35,35.13,5.35z M52.23,41.35c-0.21-0.34-0.76-0.55-1.59-0.96
		c-0.83-0.41-4.91-2.41-5.67-2.68c-0.76-0.27-1.32-0.41-1.87,0.41c-0.55,0.82-2.14,2.68-2.63,3.23c-0.48,0.55-0.97,0.62-1.8,0.21
		c-0.83-0.41-3.5-1.28-6.68-4.09c-2.47-2.18-4.13-4.88-4.62-5.7c-0.48-0.82-0.05-1.27,0.36-1.68c0.37-0.37,0.83-0.96,1.25-1.44
		c0.42-0.48,0.55-0.82,0.83-1.37c0.28-0.55,0.14-1.03-0.07-1.44c-0.21-0.41-1.87-4.47-2.56-6.12c-0.69-1.65-1.38-1.37-1.87-1.37
		c-0.48,0-1.04-0.07-1.59-0.07s-1.45,0.21-2.21,1.03c-0.76,0.82-2.9,2.82-2.9,6.87c0,4.05,2.97,7.97,3.39,8.52
		c0.41,0.55,5.74,9.14,14.18,12.44c8.44,3.3,8.44,2.2,9.96,2.06c1.52-0.14,4.91-1.99,5.61-3.92C52.44,43.35,52.44,41.7,52.23,41.35z
		"/>
</g>
</svg>
