<?xml version="1.0" encoding="utf-8"?>
<!-- Generator: Adobe Illustrator 23.0.0, SVG Export Plug-In . SVG Version: 6.00 Build 0)  -->
<svg version="1.1" id="Layer_1" xmlns="http://www.w3.org/2000/svg" xmlns:xlink="http://www.w3.org/1999/xlink" x="0px" y="0px"
	 viewBox="0 0 468.67 509.41" style="enable-background:new 0 0 468.67 509.41;" xml:space="preserve">
<style type="text/css">
	.st0{fill:#223C8D;}
	.st1{fill:#55C0DB;}
	.st2{fill:#00A0E0;}
	.st3{fill:#006BB1;}
</style>
<g>
	<g>
		<g>
			<g>
				<g>
					<path class="st0" d="M192.99,416.84c-1.35,0-2.69-0.02-4.04-0.05c-2.8-0.08-5.01-2.41-4.94-5.21c0.08-2.8,2.4-5.01,5.21-4.94
						c45.56,1.26,88.73-20.17,115.48-57.28c1.64-2.27,4.81-2.79,7.09-1.15c2.27,1.64,2.79,4.81,1.15,7.09
						C285.02,394.03,240.42,416.84,192.99,416.84z"/>
				</g>
				<g>
					<path class="st0" d="M172.41,415.36c-0.24,0-0.48-0.02-0.73-0.05c-38.55-5.55-72.8-25.67-96.46-56.65
						C51.52,327.63,41.15,289.21,46,250.47c0.35-2.78,2.89-4.75,5.67-4.41c2.78,0.35,4.75,2.89,4.41,5.67
						c-9.27,74.02,43.24,142.89,117.05,153.52c2.77,0.4,4.7,2.97,4.3,5.75C177.06,413.53,174.89,415.36,172.41,415.36z"/>
				</g>
				<g>
					<path class="st0" d="M60.11,220.86c-0.63,0-1.26-0.12-1.88-0.36c-2.6-1.04-3.87-3.99-2.83-6.6
						c5.16-12.92,12.12-25.04,20.71-36.03c1.73-2.21,4.92-2.6,7.12-0.88c2.21,1.73,2.6,4.92,0.88,7.12
						c-7.99,10.23-14.48,21.52-19.28,33.55C64.03,219.65,62.13,220.86,60.11,220.86z"/>
				</g>
			</g>
			<g>
				<g>
					<path class="st1" d="M365.77,268.27c-2.73,0-4.98-2.17-5.07-4.92c-0.27-8.56-1.21-17.16-2.78-25.56
						c-0.52-2.76,1.3-5.41,4.05-5.93c2.75-0.52,5.41,1.3,5.93,4.05c1.67,8.91,2.67,18.03,2.95,27.11c0.09,2.8-2.11,5.14-4.91,5.23
						C365.87,268.27,365.82,268.27,365.77,268.27z"/>
				</g>
				<g>
					<path class="st1" d="M193.14,446.98c-7.45,0-14.94-0.46-22.45-1.4c-34.04-4.26-65.88-18.1-92.07-40.02
						c-25.5-21.34-44.5-49.28-54.94-80.77c-0.88-2.66,0.56-5.53,3.22-6.41c2.66-0.88,5.53,0.56,6.41,3.22
						c20.28,61.2,74.69,105.91,138.63,113.92c90.5,11.33,174.46-52.9,187.16-143.19c0.39-2.78,2.96-4.71,5.73-4.32
						c2.78,0.39,4.71,2.96,4.32,5.73c-3.31,23.51-11.09,45.72-23.13,65.99c-11.64,19.6-26.75,36.6-44.93,50.53
						C269.74,434.28,232.06,446.98,193.14,446.98z"/>
				</g>
				<g>
					<path class="st1" d="M22.85,306.55c-2.39,0-4.51-1.69-4.98-4.12c-0.76-3.94-1.38-7.96-1.87-11.95
						c-0.34-2.78,1.64-5.31,4.43-5.65c2.78-0.34,5.31,1.64,5.65,4.43c0.46,3.76,1.05,7.55,1.76,11.27c0.53,2.75-1.28,5.41-4.03,5.94
						C23.49,306.52,23.16,306.55,22.85,306.55z"/>
				</g>
			</g>
			<g>
				<g>
					<path class="st2" d="M312.7,112.49c-1.05,0-2.12-0.33-3.03-1c-2.31-1.72-4.68-3.4-7.05-5.01c-2.32-1.57-2.93-4.73-1.36-7.05
						c1.57-2.32,4.73-2.93,7.05-1.36c2.49,1.69,4.99,3.46,7.42,5.27c2.25,1.67,2.72,4.85,1.04,7.1
						C315.78,111.78,314.25,112.49,312.7,112.49z"/>
				</g>
				<g>
					<path class="st2" d="M375.88,357.2c-0.7,0-1.42-0.15-2.1-0.46c-2.55-1.16-3.68-4.17-2.52-6.72
						c8.16-17.95,13.55-37.07,16.02-56.82c7.83-62.5-15.13-125.39-61.4-168.25c-2.06-1.9-2.18-5.12-0.27-7.17
						c1.91-2.06,5.12-2.18,7.17-0.27c23.53,21.8,41.91,49.16,53.15,79.13c11.61,30.97,15.56,64.8,11.42,97.83
						c-2.6,20.77-8.27,40.88-16.85,59.76C379.65,356.1,377.81,357.2,375.88,357.2z"/>
				</g>
				<g>
					<path class="st2" d="M193.08,475.01c-2.5,0-5-0.05-7.51-0.14c-2.8-0.1-4.99-2.46-4.89-5.26c0.1-2.8,2.45-4.99,5.26-4.89
						c58.01,2.11,113.65-21.53,152.66-64.86c1.88-2.08,5.08-2.25,7.17-0.38c2.08,1.88,2.25,5.08,0.38,7.17
						C306.8,450.36,251.37,475.01,193.08,475.01z"/>
				</g>
				<g>
					<path class="st2" d="M167.84,473.44c-0.21,0-0.42-0.01-0.64-0.04c-37.45-4.69-72.81-19.49-102.24-42.8
						c-2.2-1.74-2.57-4.93-0.83-7.13c1.74-2.2,4.93-2.57,7.13-0.83c27.98,22.16,61.59,36.23,97.2,40.69
						c2.78,0.35,4.75,2.89,4.41,5.67C172.55,471.56,170.37,473.44,167.84,473.44z"/>
				</g>
				<g>
					<path class="st2" d="M41.28,406.08c-1.42,0-2.82-0.59-3.83-1.74c-12.05-13.83-22.21-29.19-30.2-45.66
						c-1.22-2.52-0.17-5.56,2.35-6.78c2.52-1.22,5.56-0.17,6.78,2.35c7.6,15.67,17.26,30.28,28.72,43.43
						c1.84,2.11,1.62,5.32-0.49,7.16C43.65,405.67,42.47,406.08,41.28,406.08z"/>
				</g>
			</g>
			<g>
				<g>
					<path class="st3" d="M407.57,192.31c-2.05,0-3.97-1.24-4.74-3.27c-26-68.23-83.6-119.72-154.06-137.75
						c-2.72-0.69-4.35-3.46-3.66-6.18c0.69-2.72,3.46-4.36,6.18-3.66c73.66,18.84,133.86,72.66,161.04,143.97
						c1,2.62-0.32,5.55-2.94,6.55C408.78,192.2,408.17,192.31,407.57,192.31z"/>
				</g>
				<g>
					<path class="st3" d="M251.75,496c-2.25,0-4.3-1.5-4.9-3.77c-0.72-2.71,0.89-5.49,3.6-6.21
						c88.95-23.64,153.81-97.93,165.25-189.26c2.17-17.34,2.34-34.86,0.49-52.07c-0.3-2.79,1.72-5.29,4.51-5.59
						c2.79-0.3,5.29,1.72,5.59,4.51c1.93,17.99,1.76,36.3-0.51,54.42c-5.93,47.33-25.74,91.12-57.3,126.64
						c-15.21,17.11-32.8,31.9-52.29,43.95c-19.65,12.15-40.88,21.31-63.12,27.22C252.62,495.95,252.18,496,251.75,496z"/>
				</g>
				<g>
					<path class="st3" d="M219.87,502.09c-2.54,0-4.73-1.9-5.03-4.48c-0.33-2.78,1.66-5.31,4.45-5.63c2.42-0.29,4.87-0.61,7.28-0.98
						c2.77-0.42,5.36,1.49,5.78,4.26c0.42,2.77-1.49,5.36-4.26,5.78c-2.52,0.38-5.08,0.73-7.61,1.02
						C220.27,502.07,220.06,502.09,219.87,502.09z"/>
				</g>
			</g>
			<g>
				<g>
					<path class="st0" d="M451.96,302.68c-0.19,0-0.38-0.01-0.57-0.03c-2.79-0.31-4.79-2.82-4.48-5.61
						C461.68,164.21,370.33,41.37,238.93,17.4c-2.76-0.5-4.59-3.15-4.08-5.9c0.5-2.76,3.15-4.59,5.9-4.08
						c66.15,12.07,124.79,48.48,165.12,102.52c40.44,54.2,58.6,121.05,51.12,188.23C456.71,300.76,454.51,302.68,451.96,302.68z"/>
				</g>
				<g>
					<path class="st0" d="M417.53,406.26c-0.88,0-1.76-0.23-2.57-0.7c-2.42-1.42-3.22-4.54-1.79-6.95
						c9.5-16.11,17.22-33.31,22.96-51.12c0.86-2.67,3.72-4.14,6.39-3.28c2.67,0.86,4.14,3.72,3.28,6.39
						c-5.96,18.52-13.99,36.41-23.87,53.17C420.96,405.37,419.27,406.26,417.53,406.26z"/>
				</g>
				<g>
					<path class="st0" d="M399.53,432.89c-1.08,0-2.17-0.34-3.09-1.06c-2.22-1.71-2.63-4.9-0.92-7.12c2-2.6,3.98-5.27,5.87-7.93
						c1.62-2.28,4.79-2.82,7.08-1.2c2.29,1.62,2.82,4.79,1.2,7.08c-1.97,2.77-4.02,5.54-6.1,8.24
						C402.55,432.21,401.05,432.89,399.53,432.89z"/>
				</g>
			</g>
		</g>
	</g>
	<g>
		<path class="st0" d="M359.24,369.21c3.3-1.97,6.69-3.78,10.05-5.64c0.66-0.36,1.33-0.7,2.02-1c0.6-0.26,1.25,0.07,1.29,0.66
			c0.13,2.39,0.27,4.78,0.34,7.18c0.06,1.84,0.08,3.68,0.02,5.52c-0.07,1.94-0.13,3.89-0.42,5.8c-0.26,1.72-0.52,3.57-1.33,5.06
			c-2.16,3.98-5.73,5.94-10.23,5.9c-2.25-0.02-4.36-0.75-6.23-2.13c-2.13-1.58-3.63-3.57-4.29-6.13c-0.99-3.78-0.31-7.22,2.13-10.09
			C354.66,372.21,356.89,370.61,359.24,369.21z M365.01,367.75c-3.23,1.77-6.36,3.71-9.28,5.96c-2.21,1.7-3.75,3.83-3.96,6.68
			c-0.24,3.26,0.75,6.09,3.31,8.29c1.88,1.61,4.08,2.38,6.5,2.33c2.26-0.05,4.31-0.84,6.07-2.35c2.32-2,3.05-4.64,3.25-7.54
			c0.11-1.51,0.27-3.01,0.32-4.52c0.06-1.71,0.06-3.43,0.04-5.14c-0.03-1.79-0.11-3.58-0.18-5.37c-0.02-0.46-0.08-0.92-0.13-1.51
			C368.89,365.67,366.94,366.69,365.01,367.75z"/>
		<path class="st0" d="M367.97,384.11c-0.93,0.84-1.77,1.86-2.83,2.5c-2.32,1.4-4.78,1.45-7.24,0.21c-0.49-0.24-1.07-0.54-1.44,0.13
			c-0.35,0.62,0.08,1.06,0.58,1.34c2.97,1.65,7.12,1.44,9.77-0.76c0.93-0.77,1.65-1.79,2.42-2.73c0.31-0.38,0.35-0.92-0.18-1.12
			c-0.36-0.14-0.82,0.02-1.24,0.05C367.87,383.85,367.92,383.98,367.97,384.11z"/>
	</g>
	<g>
		<path class="st0" d="M418.05,226.65c-3.47,3.26-9.07,2.78-12.26-0.72c-1.58-1.73-2.26-3.82-2.38-6.1
			c-0.03-0.67-0.35-0.86-0.88-1.1c-0.88-0.39-1.81-0.78-2.51-1.4c-0.92-0.82-1.7-1.84-2.44-2.84c-0.76-1.03-0.5-1.96,0.69-2.37
			c1.3-0.45,2.68-0.7,4.02-1.04c0.31-0.08,0.61-0.16,0.76-0.2c-0.52-1.02-1.12-1.88-1.42-2.83c-0.39-1.26,0.1-2.49,0.94-2.95
			c0.91-0.49,1.74-0.25,2.87,0.68c0.59,0.49,1.13,0.83,2.1,0.33c1.1-0.56,2.47-0.75,3.72-0.77c1.17-0.02,1.82-0.33,2.31-1.41
			c0.69-1.52,2.38-1.88,3.44-0.76c1,1.05,1.07,2.37,0.73,3.73c-0.1,0.41-0.22,0.81-0.31,1.17c1.25-0.2,2.41-0.29,3.5-0.6
			c1.23-0.34,2.58,0.64,3.73-0.42c0.09-0.08,0.53,0.11,0.73,0.28c1.44,1.19,2.49,2.65,2.78,4.53c0.07,0.43-0.11,0.89-0.21,1.57
			c0.71-0.31,0.99-0.43,1.26-0.56c0.75-0.35,1.48-0.78,2.27-1.03c1.47-0.47,2.05,0.04,1.87,1.6c-0.12,1.02-0.28,2.04-0.43,3.11
			c1.23-0.15,1.5,0.54,1.36,1.6c-0.13,1.05-0.23,2.11-0.34,3.06c0.41,0.28,1.15,0.52,1.19,0.85c0.25,2.27-0.04,4.49-1.81,6.14
			c-0.92,0.86-2.07,1.47-3.26,2.29c0.25,1.34,0.49,2.93,0.85,4.48c0.17,0.71-0.09,1.21-0.65,1.3c-0.32,0.05-0.86-0.44-1.07-0.81
			c-0.24-0.43-0.23-1.01-0.33-1.52c-0.22-1.14-0.45-2.28-0.66-3.39c-4.19,0.3-6.2-1.72-7.64-4.98c-0.39-0.88-0.21-1.48,0.81-1.73
			c-0.18-0.3-0.33-0.56-0.43-0.73C419.97,224.34,419.13,225.63,418.05,226.65z M418.09,210.01c-0.49,0.11-1.24,0.13-1.52-0.16
			c-0.63-0.65-1.49-1.3-0.99-2.51c0.29-0.71,0.35-1.51,0.45-2.28c0.02-0.18-0.2-0.39-0.32-0.59c-0.19,0.12-0.43,0.2-0.55,0.36
			c-0.32,0.46-0.6,0.94-0.87,1.43c-0.42,0.78-1.04,1.08-1.91,0.91c-1.72-0.34-3.35-0.02-4.81,0.89c-0.93,0.59-1.63,0.34-2.36-0.23
			c-0.36-0.28-0.69-0.61-1.06-0.86c-0.17-0.12-0.52-0.2-0.64-0.11c-0.15,0.11-0.27,0.47-0.19,0.64c0.23,0.53,0.44,1.14,0.86,1.49
			c0.94,0.8,1.02,1.86,0.61,2.84c-0.25,0.61-0.67,1-1.44,1c-1.37,0-2.75,0.09-4.07,0.91c1.27,1.61,2.24,3.45,4.61,3.42
			c0.78-0.01,1.03,0.45,1.11,1.11c0.14,1.09,0.29,2.17,0.46,3.51c1.89-2.11,3.86-3.52,6.44-4.04c2.57-0.53,4.94-0.02,7.45,1.12
			c-0.29-0.97-0.5-1.72-0.73-2.47c-0.36-1.17-0.12-1.94,0.96-2.53c1.84-1,2.14-2.76,2.5-4.51c-0.08-0.12-0.16-0.24-0.24-0.35
			C420.61,209.33,419.36,209.73,418.09,210.01z M412.13,219.5c-2.27,0.49-4.04,1.79-5.37,3.67c-0.34,0.49-0.27,0.9,0.17,1.36
			c2.97,3.12,7,3.37,10.16,0.69c1.23-1.04,1.96-2.49,2.21-4.19C417.1,219.44,414.71,218.94,412.13,219.5z M422.84,225.69
			c0.38,1.9,2.41,3.21,4.82,3.05C427.08,226.82,424.8,225.1,422.84,225.69z M425.71,218.98c-0.23-1.71-2.78-3.59-4.83-3.09
			C421.41,218.01,423.97,219.41,425.71,218.98z M429.04,223.37c1.76-0.22,3.42-2.22,3.4-4.71
			C430.24,219.11,428.63,221.69,429.04,223.37z M427.99,218.51c2.07-0.21,3.7-2.81,3.41-4.67
			C429.44,214.26,428.01,216.07,427.99,218.51z M426.71,223.81c-0.66-2.07-3.01-3.49-4.99-2.96
			C422.94,223.16,424.61,224.24,426.71,223.81z M433.25,223.58c-2.16,0.67-3.19,2.07-3.39,4.67
			C432,227.85,433.53,225.7,433.25,223.58z M425.97,214.36c0.86-1.26,0.56-3.03-0.85-4.78
			C424.47,211.43,424.83,212.96,425.97,214.36z"/>
		<path class="st0" d="M412.88,212.84c-0.16,0.27-0.35,0.52-0.48,0.8c-0.26,0.56-0.28,1.15,0.34,1.45c0.61,0.29,1.01,0,1.3-0.64
			c0.39-0.87,0.89-0.94,1.66-0.38c0.49,0.36,0.95,0.72,1.5,0.02c0.61-0.76,0-1.3-0.42-1.59C415.45,211.6,413.89,211.7,412.88,212.84
			z"/>
		<path class="st0" d="M409.99,213.9c-1.89-1.3-4.24-0.57-4.67,1.47c-0.07,0.34,0.33,0.78,0.52,1.17c0.38-0.23,0.91-0.36,1.12-0.7
			c0.45-0.75,0.95-0.99,1.64-0.44c0.59,0.48,1.21,0.63,1.6-0.01C410.39,215.05,410.08,214.41,409.99,213.9z"/>
		<path class="st0" d="M414.13,222.47c0.09,0.53,0.04,0.98,0.21,1.08c0.21,0.12,0.62,0.02,0.86-0.13c0.09-0.06,0.03-0.57-0.11-0.74
			C414.97,222.52,414.62,222.56,414.13,222.47z"/>
		<path class="st0" d="M410.54,223.31c0.18,0.45,0.22,0.83,0.38,0.89c0.24,0.09,0.65,0.04,0.83-0.12c0.12-0.11,0.05-0.68-0.09-0.77
			C411.44,223.19,411.08,223.3,410.54,223.31z"/>
	</g>
	<g>
		<path class="st3" d="M438.68,323.5c-1.11-1.37-2.3-2.74-2.53-4.57c-0.11-0.86,0.18-1.76,0.15-2.64c-0.03-0.75-0.19-1.5-0.43-2.21
			c-0.08-0.23-0.56-0.46-0.85-0.45c-0.17,0-0.44,0.44-0.49,0.71c-0.25,1.4-0.57,2.8-0.61,4.21c-0.03,1.04,0.25,2.11,0.51,3.14
			c0.92,3.72,3.14,6.58,6.03,8.98c1.29,1.07,2.65,2.06,4.02,3.12c0.24-0.76,0.32-1.35,0.6-1.81c0.37-0.6,0.18-1.03-0.19-1.48
			c-0.1-0.12-0.21-0.22-0.32-0.33c-0.86-0.85-1.45-1.74-1.1-3.09c0.26-0.99-0.32-1.87-0.96-2.62c-0.47-0.55-1.09-1-1.52-1.58
			c-0.64-0.87-1.17-1.82-1.74-2.75c-0.12-0.19-0.21-0.4-0.31-0.61c-0.26-0.5-0.66-0.69-1.19-0.49c-0.6,0.22-0.61,0.77-0.44,1.22
			c0.28,0.76,0.69,1.47,1.05,2.2c0.16,0.33,0.34,0.66,0.51,0.98C438.8,323.44,438.74,323.47,438.68,323.5z"/>
		<path class="st3" d="M457.59,326.02c-2.88,3.08-6.25,4.71-9.8,6.04c-0.62,0.23-1.23,0.5-1.87,0.64c-0.54,0.12-0.8,0.36-0.67,0.88
			c0.14,0.55,0.64,0.61,1.05,0.46c1.83-0.69,3.7-1.32,5.45-2.18c1.67-0.83,3.31-1.79,4.78-2.94c3.34-2.61,5.35-6.06,5.4-10.37
			c0.04-2.75-1.65-4.58-3.97-5.8c-2.92-1.53-5.83-1.25-8.65,0.32c-0.54,0.3-0.85,0.26-1.21-0.2c-2.27-2.92-6.69-3.97-10.12-2.37
			c-0.77,0.36-1.44,0.93-2.13,1.42c-0.44,0.31-0.49,0.79-0.1,1.09c0.19,0.15,0.76,0.05,0.98-0.14c2.66-2.3,6.58-2.31,9.27-0.13
			c0.64,0.52,1.19,1.17,1.72,1.82c0.58,0.71,0.83,0.79,1.55,0.23c1.36-1.07,2.92-1.65,4.63-1.63c2.83,0.04,5.08,1.2,6.32,3.83
			c0.62,1.3,0.36,2.73,0.03,4.1C459.77,323.08,458.64,324.72,457.59,326.02z"/>
	</g>
</g>
</svg>
