<?xml version="1.0" encoding="utf-8"?>
<!-- Generator: Adobe Illustrator 25.0.0, SVG Export Plug-In . SVG Version: 6.00 Build 0)  -->
<svg version="1.1" id="Layer_1" xmlns="http://www.w3.org/2000/svg" xmlns:xlink="http://www.w3.org/1999/xlink" x="0px" y="0px"
	 viewBox="0 0 82.08 84.52" style="enable-background:new 0 0 82.08 84.52;" xml:space="preserve">
<style type="text/css">
	.st0{fill:#FFFFFF;}
</style>
<g>
	<g>
		<g>
			<path class="st0" d="M41.28,83.05c-22.19,0-40.25-18.06-40.25-40.25S19.09,2.55,41.28,2.55S81.53,20.61,81.53,42.8
				S63.47,83.05,41.28,83.05z M41.28,5.42C20.67,5.42,3.9,22.19,3.9,42.8s16.77,37.38,37.38,37.38S78.66,63.41,78.66,42.8
				S61.89,5.42,41.28,5.42z"/>
		</g>
		<g>
			<path class="st0" d="M40.86,44.24c-0.79,0-1.43-0.64-1.43-1.43V19.85c0-0.79,0.64-1.43,1.43-1.43c0.79,0,1.43,0.64,1.43,1.43
				V42.8C42.3,43.59,41.66,44.24,40.86,44.24z"/>
		</g>
		<g>
			<path class="st0" d="M41.28,42.6c0,0.79-0.64,1.43-1.43,1.43l-12.73-5.99c-0.79,0-1.43-0.64-1.43-1.43
				c0-0.79,0.64-1.43,1.43-1.43l12.73,5.99C40.64,41.17,41.28,41.81,41.28,42.6z"/>
		</g>
	</g>
	<g>
		<path class="st0" d="M40.97,46.13c-1.94,0-3.52-1.58-3.52-3.52s1.58-3.53,3.52-3.53c1.94,0,3.52,1.58,3.52,3.53
			S42.92,46.13,40.97,46.13z M40.97,41.95c-0.36,0-0.66,0.29-0.66,0.66s0.29,0.65,0.66,0.65c0.36,0,0.66-0.29,0.66-0.65
			S41.33,41.95,40.97,41.95z"/>
	</g>
</g>
</svg>
