<?xml version="1.0" encoding="utf-8"?>
<!-- Generator: Adobe Illustrator 23.0.0, SVG Export Plug-In . SVG Version: 6.00 Build 0)  -->
<svg version="1.1" id="Layer_1" xmlns="http://www.w3.org/2000/svg" xmlns:xlink="http://www.w3.org/1999/xlink" x="0px" y="0px"
	 viewBox="0 0 178.27 179.69" style="enable-background:new 0 0 178.27 179.69;" xml:space="preserve">
<style type="text/css">
	.st0{fill:#E0A758;}
	.st1{fill:none;stroke:#E0A758;stroke-width:3;stroke-miterlimit:10;}
</style>
<text transform="matrix(1 0 0 1 1160.8815 1242.962)"><tspan x="0" y="0" style="fill:#FFFFFF; font-family:'GothamBook'; font-size:49px;">Centro América: </tspan><tspan x="338.68" y="0" style="fill:#FFFFFF; font-family:'GothamBold'; font-size:49px;">6 pm</tspan><tspan x="0" y="49" style="fill:#FFFFFF; font-family:'GothamBook'; font-size:49px;">Panamá: </tspan><tspan x="185.51" y="49" style="fill:#FFFFFF; font-family:'GothamBold'; font-size:49px;">7 pm</tspan><tspan x="0" y="98" style="fill:#FFFFFF; font-family:'GothamBook'; font-size:49px;">Rep. Dominicana: </tspan><tspan x="366.76" y="98" style="fill:#FFFFFF; font-family:'GothamBold'; font-size:49px;">8 pm</tspan></text>
<g>
	<path class="st0" d="M1027.11,1180.96c-47.54,0-86.22,38.68-86.22,86.22s38.68,86.22,86.22,86.22c47.54,0,86.22-38.68,86.22-86.22
		S1074.65,1180.96,1027.11,1180.96z M1027.11,1342.96c-41.78,0-75.77-33.99-75.77-75.77s33.99-75.77,75.77-75.77
		c41.78,0,75.77,33.99,75.77,75.77S1068.89,1342.96,1027.11,1342.96z"/>
	<path class="st0" d="M1027.11,1217.54c2.17,0,3.92-1.75,3.92-3.92v-11.32c0-2.17-1.75-3.92-3.92-3.92s-3.92,1.75-3.92,3.92v11.32
		C1023.19,1215.79,1024.94,1217.54,1027.11,1217.54z"/>
	<path class="st0" d="M973.54,1263.27h-11.32c-2.17,0-3.92,1.75-3.92,3.92c0,2.16,1.76,3.92,3.92,3.92h11.32
		c2.16,0,3.92-1.75,3.92-3.92C977.46,1265.03,975.71,1263.27,973.54,1263.27z"/>
	<path class="st0" d="M1027.11,1316.83c-2.16,0-3.92,1.76-3.92,3.92v11.32c0,2.17,1.76,3.92,3.92,3.92c2.16,0,3.91-1.76,3.92-3.92
		v-11.32C1031.03,1318.59,1029.27,1316.83,1027.11,1316.83z"/>
	<path class="st0" d="M1092,1263.27h-11.32c-2.17,0-3.92,1.75-3.92,3.92c0,2.16,1.76,3.92,3.92,3.92H1092
		c2.17,0,3.92-1.75,3.92-3.92C1095.91,1265.03,1094.16,1263.27,1092,1263.27z"/>
	<path class="st0" d="M1067.11,1221.65l-34,34c-1.81-0.94-3.82-1.52-6-1.52c-7.21,0-13.06,5.85-13.06,13.06s5.85,13.06,13.06,13.06
		c1.68,0,3.27-0.34,4.75-0.93l25.18,25.18c1.02,1.02,2.36,1.53,3.69,1.53s2.68-0.51,3.69-1.53c2.04-2.04,2.04-5.35,0-7.39
		l-25.18-25.18c0.58-1.48,0.92-3.07,0.92-4.75c0-2.18-0.58-4.19-1.52-6l34-34c1.53-1.53,1.53-4.01,0-5.54
		C1071.12,1220.12,1068.64,1220.12,1067.11,1221.65z"/>
</g>
<text transform="matrix(1 0 0 1 -55.1186 1262.5333)"><tspan x="0" y="0" style="fill:#FFFFFF; font-family:'Gotham-Bold'; font-size:72px;">27 OCT.</tspan><tspan x="292.6" y="0" class="st0" style="font-family:'GothamBook'; font-size:72px;"> | </tspan><tspan x="340.34" y="0" style="fill:#FFFFFF; font-family:'GothamBook'; font-size:72px;">PEDIÁTRICO</tspan><tspan x="0" y="81" style="fill:#FFFFFF; font-family:'Gotham-Bold'; font-size:72px;">03 NOV.</tspan><tspan x="311.54" y="81" class="st0" style="font-family:'GothamBook'; font-size:72px;"> | </tspan><tspan x="359.28" y="81" style="fill:#FFFFFF; font-family:'GothamBook'; font-size:72px;">ADULTOS</tspan></text>
<g>
	<path class="st0" d="M152.45,175.41H25.25c-12.15,0-22.03-9.88-22.03-22.03V41.41c0-12.15,9.88-22.03,22.03-22.03h127.19
		c12.15,0,22.03,9.88,22.03,22.03v111.98C174.48,165.53,164.59,175.41,152.45,175.41z M25.25,31.31c-5.57,0-10.1,4.53-10.1,10.1
		v111.98c0,5.57,4.53,10.1,10.1,10.1h127.19c5.57,0,10.1-4.53,10.1-10.1V41.41c0-5.57-4.53-10.1-10.1-10.1H25.25z"/>
	<g>
		<path class="st0" d="M53.94,45.33c-3.3,0-5.97-2.67-5.97-5.97V8.34c0-3.3,2.67-5.97,5.97-5.97s5.97,2.67,5.97,5.97v31.03
			C59.91,42.66,57.24,45.33,53.94,45.33z"/>
		<path class="st0" d="M123.76,45.33c-3.3,0-5.97-2.67-5.97-5.97V8.34c0-3.3,2.67-5.97,5.97-5.97s5.97,2.67,5.97,5.97v31.03
			C129.72,42.66,127.05,45.33,123.76,45.33z"/>
	</g>
	<g>
		<path class="st0" d="M44.82,79.94h-12.2c-3.22,0-5.84-2.61-5.84-5.84v-6.83c0-3.22,2.61-5.84,5.84-5.84h12.2
			c3.22,0,5.84,2.61,5.84,5.84v6.83C50.66,77.33,48.05,79.94,44.82,79.94z"/>
		<path class="st0" d="M78.24,79.94h-12.2c-3.22,0-5.84-2.61-5.84-5.84v-6.83c0-3.22,2.61-5.84,5.84-5.84h12.2
			c3.22,0,5.84,2.61,5.84,5.84v6.83C84.07,77.33,81.46,79.94,78.24,79.94z"/>
		<path class="st0" d="M111.65,79.94h-12.2c-3.22,0-5.84-2.61-5.84-5.84v-6.83c0-3.22,2.61-5.84,5.84-5.84h12.2
			c3.22,0,5.84,2.61,5.84,5.84v6.83C117.49,77.33,114.88,79.94,111.65,79.94z"/>
		<path class="st0" d="M145.07,79.94h-12.2c-3.22,0-5.84-2.61-5.84-5.84v-6.83c0-3.22,2.61-5.84,5.84-5.84h12.2
			c3.22,0,5.84,2.61,5.84,5.84v6.83C150.91,77.33,148.29,79.94,145.07,79.94z"/>
	</g>
	<g>
		<path class="st0" d="M44.82,112.16h-12.2c-3.22,0-5.84-2.61-5.84-5.84V99.5c0-3.22,2.61-5.84,5.84-5.84h12.2
			c3.22,0,5.84,2.61,5.84,5.84v6.83C50.66,109.55,48.05,112.16,44.82,112.16z"/>
		<path class="st0" d="M78.24,112.16h-12.2c-3.22,0-5.84-2.61-5.84-5.84V99.5c0-3.22,2.61-5.84,5.84-5.84h12.2
			c3.22,0,5.84,2.61,5.84,5.84v6.83C84.07,109.55,81.46,112.16,78.24,112.16z"/>
		<path class="st0" d="M111.65,112.16h-12.2c-3.22,0-5.84-2.61-5.84-5.84V99.5c0-3.22,2.61-5.84,5.84-5.84h12.2
			c3.22,0,5.84,2.61,5.84,5.84v6.83C117.49,109.55,114.88,112.16,111.65,112.16z"/>
		<path class="st0" d="M145.07,112.16h-12.2c-3.22,0-5.84-2.61-5.84-5.84V99.5c0-3.22,2.61-5.84,5.84-5.84h12.2
			c3.22,0,5.84,2.61,5.84,5.84v6.83C150.91,109.55,148.29,112.16,145.07,112.16z"/>
	</g>
	<g>
		<path class="st0" d="M44.82,144.39h-12.2c-3.22,0-5.84-2.61-5.84-5.84v-6.83c0-3.22,2.61-5.84,5.84-5.84h12.2
			c3.22,0,5.84,2.61,5.84,5.84v6.83C50.66,141.77,48.05,144.39,44.82,144.39z"/>
		<path class="st0" d="M78.24,144.39h-12.2c-3.22,0-5.84-2.61-5.84-5.84v-6.83c0-3.22,2.61-5.84,5.84-5.84h12.2
			c3.22,0,5.84,2.61,5.84,5.84v6.83C84.07,141.77,81.46,144.39,78.24,144.39z"/>
		<path class="st0" d="M111.65,144.39h-12.2c-3.22,0-5.84-2.61-5.84-5.84v-6.83c0-3.22,2.61-5.84,5.84-5.84h12.2
			c3.22,0,5.84,2.61,5.84,5.84v6.83C117.49,141.77,114.88,144.39,111.65,144.39z"/>
		<path class="st0" d="M145.07,144.39h-12.2c-3.22,0-5.84-2.61-5.84-5.84v-6.83c0-3.22,2.61-5.84,5.84-5.84h12.2
			c3.22,0,5.84,2.61,5.84,5.84v6.83C150.91,141.77,148.29,144.39,145.07,144.39z"/>
	</g>
</g>
<line class="st1" x1="848.88" y1="1191.89" x2="848.88" y2="1356.89"/>
</svg>
