<?xml version="1.0" encoding="utf-8"?>
<!-- Generator: Adobe Illustrator 23.0.0, SVG Export Plug-In . SVG Version: 6.00 Build 0)  -->
<svg version="1.1" id="Layer_1" xmlns="http://www.w3.org/2000/svg" xmlns:xlink="http://www.w3.org/1999/xlink" x="0px" y="0px"
	 viewBox="0 0 131 138.71" style="enable-background:new 0 0 131 138.71;" xml:space="preserve">
<style type="text/css">
	.st0{fill:url(#SVGID_1_);}
	.st1{opacity:0.5;}
	.st2{fill:url(#SVGID_2_);}
	.st3{fill:url(#SVGID_3_);}
</style>
<g>
	<g>
		<linearGradient id="SVGID_1_" gradientUnits="userSpaceOnUse" x1="5.7562" y1="68.2481" x2="126.7562" y2="68.2481">
			<stop  offset="0" style="stop-color:#B2793D"/>
			<stop  offset="0.3552" style="stop-color:#D7BA73"/>
			<stop  offset="0.5785" style="stop-color:#F0E596"/>
			<stop  offset="0.66" style="stop-color:#DCC37A"/>
			<stop  offset="0.7527" style="stop-color:#CAA35F"/>
			<stop  offset="0.8423" style="stop-color:#BD8C4C"/>
			<stop  offset="0.9266" style="stop-color:#B57E41"/>
			<stop  offset="1" style="stop-color:#B2793D"/>
		</linearGradient>
		<circle class="st0" cx="66.26" cy="68.25" r="60.5"/>
	</g>
	<g class="st1">
		
			<linearGradient id="SVGID_2_" gradientUnits="userSpaceOnUse" x1="14.2433" y1="76.755" x2="135.2433" y2="76.755" gradientTransform="matrix(0 1 -1 0 143.0113 -6.4952)">
			<stop  offset="0" style="stop-color:#FFFFFF"/>
			<stop  offset="0.8" style="stop-color:#FFFFFF;stop-opacity:0"/>
		</linearGradient>
		<circle class="st2" cx="66.26" cy="68.25" r="60.5"/>
	</g>
	<g>
		<linearGradient id="SVGID_3_" gradientUnits="userSpaceOnUse" x1="126.7563" y1="68.2482" x2="5.7563" y2="68.2482">
			<stop  offset="0" style="stop-color:#B2793D"/>
			<stop  offset="0.3552" style="stop-color:#D7BA73"/>
			<stop  offset="0.5785" style="stop-color:#F0E596"/>
			<stop  offset="0.66" style="stop-color:#DCC37A"/>
			<stop  offset="0.7527" style="stop-color:#CAA35F"/>
			<stop  offset="0.8423" style="stop-color:#BD8C4C"/>
			<stop  offset="0.9266" style="stop-color:#B57E41"/>
			<stop  offset="1" style="stop-color:#B2793D"/>
		</linearGradient>
		<path class="st3" d="M66.26,17.75c27.85,0,50.5,22.65,50.5,50.5s-22.65,50.5-50.5,50.5s-50.5-22.65-50.5-50.5
			S38.41,17.75,66.26,17.75 M66.26,7.75c-33.41,0-60.5,27.09-60.5,60.5c0,33.41,27.09,60.5,60.5,60.5c33.41,0,60.5-27.09,60.5-60.5
			C126.76,34.83,99.67,7.75,66.26,7.75L66.26,7.75z"/>
	</g>
	<path d="M73.29,70.08l-23.27,2.25L43.9,91.92c-0.5,1.6,0.38,3.3,1.98,3.81c0.74,0.23,1.55,0.17,2.25-0.17l50.99-24.69
		c1.44-0.7,2.04-2.44,1.34-3.88c-0.28-0.58-0.75-1.05-1.34-1.34L48.17,40.94c-1.51-0.74-3.32-0.11-4.06,1.39
		c-0.34,0.7-0.4,1.5-0.17,2.25l6.12,19.58l23.22,2.25c1.01,0.1,1.74,1,1.64,2.01c-0.09,0.87-0.77,1.56-1.64,1.64L73.29,70.08z"/>
</g>
</svg>
