<?xml version="1.0" encoding="utf-8"?>
<!-- Generator: Adobe Illustrator 23.0.0, SVG Export Plug-In . SVG Version: 6.00 Build 0)  -->
<svg version="1.1" id="Layer_1" xmlns="http://www.w3.org/2000/svg" xmlns:xlink="http://www.w3.org/1999/xlink" x="0px" y="0px"
	 viewBox="0 0 104.56 89.28" style="enable-background:new 0 0 104.56 89.28;" xml:space="preserve">
<style type="text/css">
	.st0{fill:url(#SVGID_1_);}
	.st1{fill:url(#SVGID_2_);}
	.st2{fill:url(#SVGID_3_);}
</style>
<g>
	<g>
		<linearGradient id="SVGID_1_" gradientUnits="userSpaceOnUse" x1="66.3791" y1="44.7111" x2="82.4316" y2="44.7111">
			<stop  offset="0" style="stop-color:#E5D287"/>
			<stop  offset="1" style="stop-color:#BC8B4C"/>
		</linearGradient>
		<path class="st0" d="M74.43,27.93c-2-1.6-5-1.4-6.7,0.7c-1.7,2.1-1.3,5.1,0.8,6.8c2.7,2.2,4.4,5.6,4.4,9.3c0,4-1.9,7.5-4.9,9.7
			c-1.9,1.4-2.2,4.2-0.7,6l0.4,0.4c1.6,1.9,4.6,2.3,6.5,0.8c5-3.9,8.2-10.1,8.2-16.9C82.43,37.93,79.33,31.93,74.43,27.93z"/>
	</g>
	<g>
		<linearGradient id="SVGID_2_" gradientUnits="userSpaceOnUse" x1="77.665" y1="44.7792" x2="99.8316" y2="44.7792">
			<stop  offset="0" style="stop-color:#D1AE69"/>
			<stop  offset="0.1279" style="stop-color:#CAA25F"/>
			<stop  offset="0.4431" style="stop-color:#BD8C4C"/>
			<stop  offset="0.7406" style="stop-color:#B57E41"/>
			<stop  offset="1" style="stop-color:#B2793D"/>
		</linearGradient>
		<path class="st1" d="M85.33,14.53c-2-1.6-4.9-1.2-6.6,0.7l0,0c-1.6,2-1.4,5,0.6,6.6c6.6,5.5,10.9,13.7,10.9,22.9
			s-4.3,17.5-10.9,22.9c-2,1.6-2.2,4.6-0.6,6.6l0,0c1.6,2,4.6,2.4,6.6,0.8c8.8-7.1,14.5-18,14.5-30.2
			C99.73,32.53,94.13,21.63,85.33,14.53z"/>
	</g>
	<g>
		<linearGradient id="SVGID_3_" gradientUnits="userSpaceOnUse" x1="4.7316" y1="44.7405" x2="57.0316" y2="44.7405">
			<stop  offset="0" style="stop-color:#B2793D"/>
			<stop  offset="0.6139" style="stop-color:#D7BA73"/>
			<stop  offset="1" style="stop-color:#F0E596"/>
		</linearGradient>
		<path class="st2" d="M46.53,7.23l-24.3,18.7h-11.9c-3.1,0-5.6,2.5-5.6,5.6v26.4c0,3.1,2.5,5.6,5.6,5.6h11.9l24.4,18.7
			c4.3,3.3,10.4,0.3,10.4-5.2v-64.7C57.03,7.03,50.83,3.93,46.53,7.23z"/>
	</g>
</g>
</svg>
