<?xml version="1.0" encoding="utf-8"?>
<!-- Generator: Adobe Illustrator 23.0.0, SVG Export Plug-In . SVG Version: 6.00 Build 0)  -->
<svg version="1.1" id="Layer_1" xmlns="http://www.w3.org/2000/svg" xmlns:xlink="http://www.w3.org/1999/xlink" x="0px" y="0px"
	 viewBox="0 0 178.27 179.69" style="enable-background:new 0 0 178.27 179.69;" xml:space="preserve">
<style type="text/css">
	.st0{fill:#E0A758;}
	.st1{fill:none;stroke:#E0A758;stroke-width:3;stroke-miterlimit:10;}
</style>
<text transform="matrix(1 0 0 1 1160.8815 1242.962)"><tspan x="0" y="0" style="fill:#FFFFFF; font-family:'GothamBook'; font-size:49px;">Centro América: </tspan><tspan x="338.68" y="0" style="fill:#FFFFFF; font-family:'GothamBold'; font-size:49px;">6 pm</tspan><tspan x="0" y="49" style="fill:#FFFFFF; font-family:'GothamBook'; font-size:49px;">Panamá: </tspan><tspan x="185.51" y="49" style="fill:#FFFFFF; font-family:'GothamBold'; font-size:49px;">7 pm</tspan><tspan x="0" y="98" style="fill:#FFFFFF; font-family:'GothamBook'; font-size:49px;">Rep. Dominicana: </tspan><tspan x="366.76" y="98" style="fill:#FFFFFF; font-family:'GothamBold'; font-size:49px;">8 pm</tspan></text>
<g>
	<path class="st0" d="M89.71,4.17c-47.54,0-86.22,38.68-86.22,86.22s38.68,86.22,86.22,86.22s86.22-38.68,86.22-86.22
		S137.25,4.17,89.71,4.17z M89.71,166.17c-41.78,0-75.77-33.99-75.77-75.77s33.99-75.77,75.77-75.77s75.77,33.99,75.77,75.77
		S131.49,166.17,89.71,166.17z"/>
	<path class="st0" d="M89.71,40.75c2.17,0,3.92-1.75,3.92-3.92V25.51c0-2.17-1.75-3.92-3.92-3.92s-3.92,1.75-3.92,3.92v11.32
		C85.79,39,87.54,40.75,89.71,40.75z"/>
	<path class="st0" d="M36.15,86.47H24.82c-2.17,0-3.92,1.75-3.92,3.92c0,2.16,1.76,3.92,3.92,3.92h11.32c2.16,0,3.92-1.75,3.92-3.92
		C40.07,88.23,38.31,86.48,36.15,86.47z"/>
	<path class="st0" d="M89.71,140.04c-2.16,0-3.92,1.76-3.92,3.92v11.32c0,2.17,1.76,3.92,3.92,3.92c2.16,0,3.91-1.76,3.92-3.92
		v-11.32C93.63,141.8,91.88,140.04,89.71,140.04z"/>
	<path class="st0" d="M154.6,86.47h-11.32c-2.17,0-3.92,1.75-3.92,3.92c0,2.16,1.76,3.92,3.92,3.92h11.32
		c2.17,0,3.92-1.75,3.92-3.92C158.52,88.23,156.76,86.47,154.6,86.47z"/>
	<path class="st0" d="M129.71,44.85l-34,34c-1.81-0.94-3.82-1.52-6-1.52c-7.21,0-13.06,5.85-13.06,13.06s5.85,13.06,13.06,13.06
		c1.68,0,3.27-0.34,4.75-0.92l25.18,25.18c1.02,1.02,2.36,1.53,3.69,1.53s2.68-0.51,3.69-1.53c2.04-2.04,2.04-5.35,0-7.39
		l-25.18-25.18c0.58-1.48,0.92-3.07,0.92-4.75c0-2.18-0.58-4.19-1.52-6l34-34c1.53-1.53,1.53-4.01,0-5.54
		C133.72,43.32,131.24,43.32,129.71,44.85z"/>
</g>
<text transform="matrix(1 0 0 1 -55.1186 1262.5333)"><tspan x="0" y="0" style="fill:#FFFFFF; font-family:'Gotham-Bold'; font-size:72px;">27 OCT.</tspan><tspan x="292.6" y="0" class="st0" style="font-family:'GothamBook'; font-size:72px;"> | </tspan><tspan x="340.34" y="0" style="fill:#FFFFFF; font-family:'GothamBook'; font-size:72px;">PEDIÁTRICO</tspan><tspan x="0" y="81" style="fill:#FFFFFF; font-family:'Gotham-Bold'; font-size:72px;">03 NOV.</tspan><tspan x="311.54" y="81" class="st0" style="font-family:'GothamBook'; font-size:72px;"> | </tspan><tspan x="359.28" y="81" style="fill:#FFFFFF; font-family:'GothamBook'; font-size:72px;">ADULTOS</tspan></text>
<g>
	<path class="st0" d="M176.02,413.48H48.82c-12.15,0-22.03-9.88-22.03-22.03V279.47c0-12.15,9.88-22.03,22.03-22.03h127.19
		c12.15,0,22.03,9.88,22.03,22.03v111.98C198.05,403.6,188.16,413.48,176.02,413.48z M48.82,269.37c-5.57,0-10.1,4.53-10.1,10.1
		v111.98c0,5.57,4.53,10.1,10.1,10.1h127.19c5.57,0,10.1-4.53,10.1-10.1V279.47c0-5.57-4.53-10.1-10.1-10.1H48.82z"/>
	<g>
		<path class="st0" d="M77.51,283.4c-3.3,0-5.97-2.67-5.97-5.97V246.4c0-3.3,2.67-5.97,5.97-5.97s5.97,2.67,5.97,5.97v31.03
			C83.48,280.73,80.81,283.4,77.51,283.4z"/>
		<path class="st0" d="M147.33,283.4c-3.3,0-5.97-2.67-5.97-5.97V246.4c0-3.3,2.67-5.97,5.97-5.97c3.3,0,5.97,2.67,5.97,5.97v31.03
			C153.29,280.73,150.62,283.4,147.33,283.4z"/>
	</g>
	<g>
		<path class="st0" d="M68.39,318.01H56.2c-3.22,0-5.84-2.61-5.84-5.84v-6.83c0-3.22,2.61-5.84,5.84-5.84h12.2
			c3.22,0,5.84,2.61,5.84,5.84v6.83C74.23,315.39,71.62,318.01,68.39,318.01z"/>
		<path class="st0" d="M101.81,318.01h-12.2c-3.22,0-5.84-2.61-5.84-5.84v-6.83c0-3.22,2.61-5.84,5.84-5.84h12.2
			c3.22,0,5.84,2.61,5.84,5.84v6.83C107.64,315.39,105.03,318.01,101.81,318.01z"/>
		<path class="st0" d="M135.22,318.01h-12.2c-3.22,0-5.84-2.61-5.84-5.84v-6.83c0-3.22,2.61-5.84,5.84-5.84h12.2
			c3.22,0,5.84,2.61,5.84,5.84v6.83C141.06,315.39,138.45,318.01,135.22,318.01z"/>
		<path class="st0" d="M168.64,318.01h-12.2c-3.22,0-5.84-2.61-5.84-5.84v-6.83c0-3.22,2.61-5.84,5.84-5.84h12.2
			c3.22,0,5.84,2.61,5.84,5.84v6.83C174.48,315.39,171.86,318.01,168.64,318.01z"/>
	</g>
	<g>
		<path class="st0" d="M68.39,350.23H56.2c-3.22,0-5.84-2.61-5.84-5.84v-6.83c0-3.22,2.61-5.84,5.84-5.84h12.2
			c3.22,0,5.84,2.61,5.84,5.84v6.83C74.23,347.62,71.62,350.23,68.39,350.23z"/>
		<path class="st0" d="M101.81,350.23h-12.2c-3.22,0-5.84-2.61-5.84-5.84v-6.83c0-3.22,2.61-5.84,5.84-5.84h12.2
			c3.22,0,5.84,2.61,5.84,5.84v6.83C107.64,347.62,105.03,350.23,101.81,350.23z"/>
		<path class="st0" d="M135.22,350.23h-12.2c-3.22,0-5.84-2.61-5.84-5.84v-6.83c0-3.22,2.61-5.84,5.84-5.84h12.2
			c3.22,0,5.84,2.61,5.84,5.84v6.83C141.06,347.62,138.45,350.23,135.22,350.23z"/>
		<path class="st0" d="M168.64,350.23h-12.2c-3.22,0-5.84-2.61-5.84-5.84v-6.83c0-3.22,2.61-5.84,5.84-5.84h12.2
			c3.22,0,5.84,2.61,5.84,5.84v6.83C174.48,347.62,171.86,350.23,168.64,350.23z"/>
	</g>
	<g>
		<path class="st0" d="M68.39,382.45H56.2c-3.22,0-5.84-2.61-5.84-5.84v-6.83c0-3.22,2.61-5.84,5.84-5.84h12.2
			c3.22,0,5.84,2.61,5.84,5.84v6.83C74.23,379.84,71.62,382.45,68.39,382.45z"/>
		<path class="st0" d="M101.81,382.45h-12.2c-3.22,0-5.84-2.61-5.84-5.84v-6.83c0-3.22,2.61-5.84,5.84-5.84h12.2
			c3.22,0,5.84,2.61,5.84,5.84v6.83C107.64,379.84,105.03,382.45,101.81,382.45z"/>
		<path class="st0" d="M135.22,382.45h-12.2c-3.22,0-5.84-2.61-5.84-5.84v-6.83c0-3.22,2.61-5.84,5.84-5.84h12.2
			c3.22,0,5.84,2.61,5.84,5.84v6.83C141.06,379.84,138.45,382.45,135.22,382.45z"/>
		<path class="st0" d="M168.64,382.45h-12.2c-3.22,0-5.84-2.61-5.84-5.84v-6.83c0-3.22,2.61-5.84,5.84-5.84h12.2
			c3.22,0,5.84,2.61,5.84,5.84v6.83C174.48,379.84,171.86,382.45,168.64,382.45z"/>
	</g>
</g>
<line class="st1" x1="848.88" y1="1191.89" x2="848.88" y2="1356.89"/>
</svg>
